<svg xmlns="http://www.w3.org/2000/svg" xmlns:xlink="http://www.w3.org/1999/xlink" width="65" height="48" viewBox="0 0 65 48"><title>level_2_2</title><defs><path id="a" d="M63.434 47.25A.5.5 0 0 1 63 48H1a.5.5 0 0 1-.432-.751l25-43a.5.5 0 0 1 .866.003l3.556 6.222L35.56.261a.5.5 0 0 1 .873-.01z"/><path id="c" d="M63.434 47.25A.5.5 0 0 1 63 48H1a.5.5 0 0 1-.432-.751l25-43a.5.5 0 0 1 .866.003l3.556 6.222L35.56.261a.5.5 0 0 1 .873-.01z"/></defs><g fill="none" fill-rule="evenodd"><mask id="b" fill="#fff"><use xlink:href="#a"/></mask><use xlink:href="#a" fill="#fff"/><g fill="#ff0" mask="url(#b)"><path d="M0-1h65v50H0z"/></g><text fill="#222" font-family="SFProText-Bold, SF Pro Text" font-size="12" font-weight="bold" letter-spacing=".5" mask="url(#b)">
                        <tspan x="28.389" y="35">2</tspan>
                    </text><path stroke="#222" d="M63 47.5 36 .5l-6 11-4-7-25 43z"/></g></svg>