<svg xmlns="http://www.w3.org/2000/svg" xmlns:xlink="http://www.w3.org/1999/xlink" width="65" height="48" viewBox="0 0 65 48"><title>level_0_0</title><defs><path id="a" d="M63.434 47.25A.5.5 0 0 1 63 48H1a.5.5 0 0 1-.432-.751l25-43a.5.5 0 0 1 .866.003l3.556 6.222L35.56.261a.5.5 0 0 1 .873-.01z"/><path id="b" d="M63.434 47.25A.5.5 0 0 1 63 48H1a.5.5 0 0 1-.432-.751l25-43a.5.5 0 0 1 .866.003l3.556 6.222L35.56.261a.5.5 0 0 1 .873-.01z"/></defs><g fill="none" fill-rule="evenodd"><use xlink:href="#a" fill="#fff"/><path stroke="#222" d="M63 47.5 36 .5l-6 11-4-7-25 43z"/></g></svg>