<svg width="65" height="48" viewBox="0 0 65 48" xmlns="http://www.w3.org/2000/svg" xmlns:xlink="http://www.w3.org/1999/xlink"><defs><path id="a" d="M11.334 0h39.462l10.34 18H.87z"/><path d="M.95 27L14.03 4.501l3.57 6.247a.5.5 0 0 0 .873-.009L24.046.523 39.256 27H.95z" id="c"/></defs><g fill="none" fill-rule="evenodd"><path d="M51.875 28h12.626v1H52.45l10.484 18.25a.5.5 0 0 1-.433.75H.5a.5.5 0 0 1-.433-.751l25-43a.5.5 0 0 1 .867.003l3.556 6.222L35.06.261a.5.5 0 0 1 .873-.01L51.875 28z" fill="#222"/><g transform="translate(.5 29)"><mask id="b" fill="#fff"><use xlink:href="#a"/></mask><use fill="#222" xlink:href="#a"/><g mask="url(#b)" fill="#F90"><path d="M-1-30h65v50H-1z"/></g><text mask="url(#b)" font-family="SFProText-Bold, SF Pro Text" font-size="12" font-weight="bold" letter-spacing=".5" fill="#222"><tspan x="27.236" y="14">3</tspan></text></g><g transform="translate(11.5 1)"><mask id="d" fill="#fff"><use xlink:href="#c"/></mask><use fill="#222" xlink:href="#c"/><g mask="url(#d)" fill="#F90"><path d="M-12-2h65v50h-65z"/></g><text mask="url(#d)" font-family="SFProText-Bold, SF Pro Text" font-size="12" font-weight="bold" letter-spacing=".5" fill="#222"><tspan x="16.236" y="23">3</tspan></text></g></g></svg>
