<svg xmlns="http://www.w3.org/2000/svg" xml:space="preserve" width="113.39" height="113.39" viewBox="0 0 113.39 113.39"><g fill-rule="evenodd" clip-rule="evenodd"><path fill="#fff" d="M.189 88.065C.189 58.993.192 29.921.17.85c0-.708.16-.869.868-.868q55.845.03 111.689 0c.708 0 .872.159.869.868-.031 7.086-.019 14.173-.019 21.26-.23.671-.761 1.041-1.343 1.377-8.954 5.186-17.894 10.398-26.836 15.605-1.636.953-1.639.992-.676 2.574 5.131 8.438 10.244 16.888 15.369 25.33.718 1.183.628 1.544-.593 2.258-4.941 2.89-9.903 5.744-14.841 8.64-.401.235-.808.494-1.293.547-.764-.149-1.118-.745-1.475-1.344-3.671-6.163-7.429-12.272-11.132-18.415-1.413-2.344-2.793-4.708-4.262-7.018-.622-.979-.818-1.011-1.823-.431-1.36.787-2.686 1.635-4.077 2.369-3.264 1.912-6.507 3.863-9.854 5.628-7.692 4.54-15.437 8.992-23.15 13.495-6.629 3.87-13.275 7.709-19.896 11.591-2.035 1.193-4.089 2.354-6.123 3.55-.414.248-.856.605-1.383.199"/><path fill="#797979" d="M113.579 65.199c0 15.812-.006 31.623.018 47.435.001.647-.127.774-.774.774-27.402-.021-54.805-.018-82.207-.018-.221-.569.257-.708.586-.906 3.29-1.981 6.626-3.884 9.946-5.814q8.531-4.962 17.069-9.914c8.087-4.691 16.168-9.394 24.257-14.083 5.91-3.426 11.811-6.868 17.714-10.305q5.999-3.492 12.005-6.974c.416-.242.859-.601 1.386-.195"/><path fill="#fff" d="M22.867 113.389c-7.285 0-14.57-.008-21.856.014-.62.002-.865-.05-.847-.793.064-2.574.025-5.149.025-7.725a2.7 2.7 0 0 1 1.082-1.148c6.805-3.891 13.558-7.871 20.338-11.802 5.42-3.142 10.83-6.3 16.243-9.454 5.521-3.217 11.046-6.429 16.568-9.644 1.021-.595 1.425-.5 2.021.463 2.917 4.711 5.777 9.457 8.631 14.206.669 1.113.554 1.438-.576 2.096-8.381 4.875-16.768 9.74-25.147 14.616-4.734 2.755-9.478 5.494-14.201 8.267-.719.423-1.53.581-2.281.904"/><path fill="#020202" d="M22.867 113.389c.135-.37.511-.431.794-.596a23901 23901 0 0 1 40.692-23.632c.69-.4.821-.653.374-1.378a1137 1137 0 0 1-8.659-14.26c-.4-.669-.673-.729-1.342-.339-17.866 10.422-35.746 20.82-53.625 31.22-.297.173-.607.321-.911.481v-1.512c.297-.717.92-1.061 1.554-1.431 7.391-4.318 14.791-8.619 22.19-12.922 9.385-5.458 18.767-10.922 28.155-16.374.436-.253.865-.515 1.299-.771.53-.312.645-.764.329-1.284q-1.933-3.19-3.864-6.38c-.428-.707-.982-.669-1.613-.305-1.717.992-3.426 1.996-5.141 2.991-10.723 6.225-21.428 12.48-32.156 18.695-3.158 1.83-6.3 3.69-9.462 5.513-.404.233-.802.556-1.291.173v-3.213c3.725-2.145 7.457-4.277 11.173-6.438C24.145 74.195 36.921 66.753 49.7 59.316c.294-.171.566-.412.948-.356.642-.041.747.541 1.026.906.24.313.381.692.564 1.042 1.499 2.696 3.174 5.287 4.748 7.938 3.284 5.535 6.71 10.984 10.024 16.5.658 1.095.931 1.153 2.034.531 2.001-1.126 3.918-2.399 5.985-3.408.784-.668 1.77-1.001 2.616-1.564.959-.576 1.893-1.194 2.905-1.677.855-.583 1.693-1.209 2.81-1.162 5.439-3.153 10.871-6.321 16.329-9.442.745-.426.376-.761.121-1.182-5.38-8.863-10.751-17.735-16.164-26.582-.467-.764-.442-1.076.36-1.54 9.686-5.596 19.348-11.231 29.016-16.857.189-.11.371-.235.557-.353v3.213c-.212.552-.605.906-1.119 1.207-7.148 4.173-14.317 8.311-21.458 12.497q-1.262.742-2.537 1.459c-.616.345-.765.777-.392 1.397 1.298 2.158 2.617 4.302 3.917 6.459.426.707.96.531 1.534.195 2.473-1.445 4.943-2.895 7.422-4.329 3.842-2.222 7.661-4.481 11.517-6.678.361-.206.705-.457 1.116-.113v1.512c-.231.669-.759 1.043-1.343 1.376-5.682 3.235-11.289 6.596-16.968 9.835-.191.109-.374.232-.56.351-.832.531-.906.816-.381 1.693a733 733 0 0 0 4.401 7.256c1.138 1.847 2.205 3.737 3.382 5.56.688 1.066.957 1.123 2.055.478 2.736-1.608 5.467-3.228 8.235-4.782.391-.219.771-.485 1.178-.034v4.536c-3.765 2.167-7.535 4.321-11.291 6.502q-35.398 20.565-70.796 41.136c-.298.174-.584.368-.876.553z"/><path fill="#fff" d="M.189 91.278c4.729-2.737 9.464-5.466 14.188-8.212a19148 19148 0 0 0 34.21-19.92c.637-.372.943-.419 1.362.303 1.436 2.473 2.938 4.906 4.456 7.329.385.613.341.888-.32 1.271-11.508 6.665-22.997 13.359-34.492 20.046Q9.89 97.735.189 103.373zM113.579 60.663c-.352-.041-.579.215-.843.367-3.103 1.793-6.209 3.578-9.289 5.41-.618.367-.879.257-1.233-.333a1558 1558 0 0 0-8.708-14.339c-.417-.678-.329-.957.354-1.353 6.585-3.807 13.148-7.651 19.719-11.484zM113.579 37.418c-6.788 3.948-13.584 7.882-20.354 11.86-.758.445-1.06.321-1.481-.406a195 195 0 0 0-4.353-7.164c-.468-.731-.306-.977.384-1.375 8.317-4.804 16.615-9.643 24.917-14.474.298-.173.591-.357.887-.536z"/><path fill="#888" d="m51.793 61.259-1.404-2.292 1.485-.836c2.85-1.636 5.708-3.257 8.563-4.882.594-.096.904.285 1.16.718.234.396.5.774.683 1.199 1.797 2.586 3.33 5.338 4.956 8.03 3.001 4.965 6.013 9.925 8.959 14.924.604 1.024 1.388 1.958 1.678 3.152l-2.644 1.514c-.559-.128-.78-.601-1.037-1.029-3.435-5.714-6.855-11.437-10.297-17.147a1072 1072 0 0 0-3.573-5.886c-.81-1.323-.91-1.336-2.274-.542-1.658.965-6.255 3.077-6.255 3.077"/><path fill="#a3a3a3" d="M62.013 55.373c-.661-.606-.853-1.563-1.576-2.124 1.588-.961 3.196-1.892 4.755-2.898.668-.432.947-.22 1.309.378 5.334 8.838 10.688 17.665 16.041 26.493.208.341.339.765.82.846l-2.644 1.52c-.517-.12-.75-.543-.992-.946-4.557-7.598-9.194-15.147-13.755-22.743q-.072-.122-.144-.244c-.854-1.394-.923-1.406-2.341-.617-.452.252-.884.656-1.473.335"/><path fill="#020202" d="M38.654 100.168H26.387l6.142-10.63c.571.989 1.123 1.817 1.541 2.708.369.79.721.762 1.417.356 6.169-3.596 12.369-7.138 18.536-10.736.752-.439 1.115-.381 1.463.414a10 10 0 0 0 1.079 1.878c.447.611.248.865-.336 1.198-4.972 2.837-9.928 5.703-14.888 8.562-1.39.801-2.771 1.618-4.173 2.397-.429.238-.501.449-.239.874.572.928 1.096 1.886 1.725 2.979"/><path fill="#fff" d="M51.793 61.259s4.591-2.71 6.814-3.95c1.066-.594 1.06-.611 1.685.427q7.256 12.058 14.51 24.118c.177.294.405.567.427.934-2.327 1.364-4.67 2.704-6.974 4.106-.749.457-.908-.069-1.178-.513-4.897-8.072-9.798-16.142-14.682-24.223zM62.013 55.373c.674-.404 1.346-.812 2.021-1.212 1.051-.622 1.054-.621 1.707.457l9.327 15.404q2.588 4.274 5.174 8.55c.193.32.434.622.476 1.015l-2.846 1.686c-.326-.029-.476-.269-.624-.516z"/><path fill="#888" d="M64.683 67.319c-.006.229-.187.31-.348.401-1.771 1.006-3.546 2.005-5.312 3.021-.388.223-.619.155-.828-.237-.208-.39-.247-.685.201-.935 1.75-.979 3.488-1.98 5.24-2.956.473-.263 1.086.168 1.047.706"/><path fill="#9d9d9d" d="M69.659 63.249c.363.118.51.465.578.832.045.235-1.214 1.112-1.535 1.069-.457-.061-.575-.443-.626-.814-.036-.262 1.201-1.112 1.583-1.087"/></g></svg>