<svg xmlns="http://www.w3.org/2000/svg" xml:space="preserve" width="113.39" height="113.39" viewBox="0 0 113.39 113.39"><g fill-rule="evenodd" clip-rule="evenodd"><path fill="#fff" d="M.19 109.798C.19 73.545.192 37.292.171 1.039c0-.708.16-.868.868-.868q55.844.031 111.688 0c.708 0 .869.16.868.868-.024 14.331-.018 28.662-.018 42.993-.436.79-1.216 1.159-1.946 1.584-6.831 3.963-13.655 7.938-20.48 11.911-2.147 1.25-4.283 2.522-6.451 3.738-1.139.64-1.219.958-.57 2.095 1.702 2.978 3.398 5.958 4.999 8.99.521.985.444 1.266-.508 1.843a227 227 0 0 1-5.788 3.377c-.989.561-1.407.395-1.974-.619-1.67-2.995-3.413-5.95-4.993-8.995-.508-.978-.832-1.041-1.798-.479-11.235 6.526-22.461 13.072-33.692 19.607-11.148 6.488-22.306 12.963-33.446 19.468a808 808 0 0 1-5.559 3.208c-.391.223-.772.48-1.181.038"/><path fill="#fff" d="M113.579 113.578c-.042.058.095.197-.095.19-.221-.008-.441-.002-.662-.002-37.292 0-74.584-.002-111.876.018-.647.001-.899-.127-.756-.773.303-.755.961-1.131 1.616-1.509 10.14-5.855 20.249-11.763 30.368-17.653 12.186-7.094 24.381-14.173 36.558-21.283 1.875-1.095 3.746-2.197 5.635-3.271 1.128-.641 1.51-.577 2.138.526 1.401 2.461 2.805 4.923 4.118 7.432.543 1.038.465 1.313-.538 1.906-4.474 2.64-8.965 5.247-13.455 7.857q-8.244 4.791-16.487 9.588c-7.616 4.434-15.237 8.859-22.851 13.3-1.901 1.109-3.786 2.247-5.669 3.259.89.037 1.66-.455 2.434-.909 7.382-4.334 14.789-8.626 22.191-12.927 9.144-5.313 18.28-10.64 27.427-15.948 6.914-4.014 13.819-8.042 20.725-12.07a6111 6111 0 0 1 17.877-10.392c.387-.224.789-.584 1.303-.254v21.732c-.771 1.221-2.121 1.647-3.269 2.316-7.555 4.405-15.105 8.816-22.669 13.205-8.598 4.988-17.173 10.016-25.781 14.985a4 4 0 0 1-.595.271c2.238-.162 4.616.047 6.988-.144.237.09.465.183.729.178 11.009-.219 22.019-.043 33.027-.095a902 902 0 0 1 10.005.007c.555.005 1.152-.064 1.564.46"/><path fill="#797979" d="m113.579 113.578-44.522-.001c-.408-.001-.816-.016-1.225-.023-.16-.756.521-.871.927-1.114 2.291-1.377 4.607-2.71 6.918-4.054 11.659-6.78 23.313-13.57 34.976-20.345.599-.348 1.178-.729 1.789-1.051.365-.193.74-.388 1.138-.059z"/><path fill="#020202" d="M113.579 60.663c-6.461 3.773-12.917 7.555-19.383 11.318-23.341 13.586-46.691 27.155-70.014 40.771-1.224.715-2.411.964-3.827.758.238-.371.64-.488.965-.678a35316 35316 0 0 1 58.379-33.947c.878-.509.909-.867.435-1.674a238 238 0 0 1-4.06-7.241c-.351-.648-.595-.808-1.308-.392C49.916 84.071 25.052 98.539.19 113.011v-3.213c.344.015.577-.229.842-.382q36.649-21.324 73.294-42.652c1.047-.609 1.054-.615 1.667.481 1.777 3.183 3.565 6.358 5.307 9.56.379.695.694.759 1.36.35a144 144 0 0 1 5.79-3.365c.607-.336.697-.581.342-1.199-1.88-3.271-3.695-6.579-5.569-9.854-.389-.68-.274-1.014.396-1.401 9.795-5.674 19.575-11.372 29.361-17.06.185-.107.398-.163.6-.243v3.024c-.279.592-.765.957-1.319 1.279-6.284 3.655-12.573 7.305-18.851 10.973-2.146 1.254-4.311 2.479-6.448 3.749-.999.594-1.068.778-.536 1.789 1.086 2.061 2.252 4.077 3.423 6.091.549.944.782 1.019 1.717.474q5.343-3.116 10.691-6.221c3.403-1.974 6.788-3.979 10.207-5.926.362-.206.705-.457 1.116-.113z"/><path fill="#fff" d="M113.579 59.151 91.342 72.083c-1.05.61-1.052.608-1.642-.441-1.398-2.49-2.787-4.987-4.204-7.468-.246-.433-.289-.655.211-.944 9.298-5.38 18.583-10.778 27.872-16.173z"/><path fill="#020202" d="M113.579 86.932c-4.085 2.358-8.176 4.707-12.254 7.078-10.876 6.324-21.747 12.658-32.619 18.99-.298.174-.583.368-.874.554h-7.746c.198-.375.519-.451.775-.601q25.934-15.102 51.876-30.19c.263-.152.49-.408.842-.367zM42.286 45.901H13.95c-4.973 0-9.564-3.512-10.926-8.315C.153 27.457 6.629 18.198 15.506 15.882c4.425-1.155 8.606-.358 12.453 2.096.572.366.979.419 1.6.09 3.13-1.664 6.44-2.233 9.943-1.472.391.085.88.383.919-.502.295-6.734 5.064-11.881 11.864-13.241 3.205-.642 6.471-.94 9.618.047 4.627 1.453 7.901 4.431 9.239 9.245.323 1.166.414 2.374.101 3.549-.2.749-.013.982.731 1.179 2.271.601 4.096 1.879 5.321 3.927.829 1.387 1.262 2.88.964 4.494-.168.914.067 1.413.949 1.858 2.343 1.183 4.161 2.955 5.077 5.465 1.454 3.981-.169 8.186-3.902 10.625-2.926 1.913-6.151 2.645-9.572 2.652-9.508.022-19.016.007-28.525.007M47.196 65.741c-1.244-.722-2.329-1.354-3.416-1.981-.453-.262-.966-.565-.59-1.157.332-.522.835-.24 1.253 0 .928.531 1.858 1.06 2.773 1.611.455.274.662.251.647-.352a68 68 0 0 1 0-3.022c.012-.54-.139-1.304.692-1.289.854.016.615.802.633 1.321.032.976.026 1.953.003 2.929-.014.583.125.757.682.418.939-.573 1.902-1.108 2.856-1.658.436-.251.928-.444 1.229.107.278.509-.144.798-.543 1.029l-3.512 2.041 2.903 1.696c.272.159.559.296.814.477.33.232.578.542.312.953-.249.387-.626.387-.997.176-1.012-.575-2.029-1.142-3.021-1.749-.578-.354-.747-.236-.727.429.034 1.102.01 2.204.007 3.307-.002.469-.072.956-.663.943-.569-.013-.663-.503-.669-.964-.013-1.039-.034-2.079.005-3.117.027-.733-.069-1.019-.83-.515-.864.571-1.79 1.05-2.689 1.568-.403.232-.862.433-1.165-.057-.336-.544.085-.861.519-1.113zM29.636 57.186c-1.212-.702-2.319-1.347-3.43-1.986-.425-.244-.907-.529-.62-1.083.328-.633.855-.319 1.298-.069 1.088.614 2.168 1.241 3.427 1.964v-3.323c0-.314-.01-.631.015-.943.031-.408.177-.757.659-.767.501-.01.641.361.65.76.025 1.038.006 2.077.023 3.115.006.335-.096.689.156 1.075l2.923-1.677c.218-.125.432-.26.658-.369.377-.182.773-.204.995.198.25.457-.041.778-.423 1.003-1.164.683-2.334 1.355-3.63 2.106 1.092.63 2.088 1.203 3.082 1.779.245.142.509.263.723.442.279.233.474.544.233.906-.223.337-.553.4-.908.2-.958-.539-1.91-1.091-2.871-1.626-.263-.146-.492-.381-.943-.374 0 1.102.002 2.193-.001 3.284 0 .314.004.631-.021.943-.031.393-.247.674-.648.676-.41.003-.625-.302-.639-.681-.033-.88-.005-1.763-.042-2.642-.022-.518.26-1.268-.16-1.489-.394-.208-.918.391-1.379.642-.69.376-1.363.782-2.044 1.176-.423.244-.869.353-1.138-.159-.242-.461.084-.768.462-.989 1.163-.681 2.328-1.356 3.593-2.092M69.815 54.965c-1.278-.741-2.394-1.386-3.507-2.034-.393-.229-.82-.495-.542-1.026.308-.587.791-.356 1.216-.116 1.115.63 2.223 1.271 3.509 2.01v-3.503c0-.283-.015-.568.012-.85.034-.376.202-.685.624-.697.476-.015.674.311.681.731.02 1.07.011 2.141.012 3.211v1.098c1.059-.6 1.975-1.119 2.89-1.64.219-.124.434-.255.652-.379.406-.229.854-.41 1.163.079.325.513-.075.82-.468 1.053-1.131.669-2.272 1.321-3.543 2.057l2.925 1.709c.244.143.494.276.734.426.39.241.631.571.35 1.016-.25.395-.629.35-.996.142-.929-.529-1.854-1.064-2.784-1.592-.264-.15-.538-.283-.923-.484 0 1.415-.006 2.696.003 3.978.003.51-.065 1.046-.676 1.036-.606-.01-.661-.556-.658-1.06.008-1.276.003-2.553.003-3.996-1.257.723-2.365 1.361-3.475 1.998-.42.242-.895.521-1.226-.046-.323-.554.114-.856.546-1.106 1.109-.644 2.22-1.287 3.478-2.015M10.8 64.588c0-1.363-.001-2.557.001-3.751.001-.536-.061-1.224.654-1.253.766-.031.675.673.679 1.2.008.976.049 1.955-.012 2.928-.057.911.247.85.866.46.878-.553 1.792-1.047 2.688-1.57.442-.257.913-.438 1.218.128.285.532-.151.797-.541 1.024-1.13.663-2.264 1.319-3.512 2.046 1.238.721 2.346 1.362 3.449 2.01.41.24.917.499.59 1.076-.315.558-.811.322-1.235.083-.904-.51-1.816-1.008-2.694-1.56-.597-.375-.861-.391-.826.438.046 1.069.014 2.141.009 3.212-.002.458-.032.951-.646.949-.593-.001-.676-.487-.681-.942-.015-1.289-.005-2.579-.005-4.06-.834.466-1.555.865-2.272 1.271-.465.263-.916.553-1.391.798-.353.183-.764.264-1.013-.134-.274-.438-.028-.787.361-1.018 1.163-.688 2.335-1.359 3.653-2.124L7.298 64.15q-.366-.215-.734-.426c-.429-.244-.73-.59-.443-1.071.266-.446.697-.32 1.081-.1.845.486 1.686.98 2.531 1.465.295.17.599.321 1.067.57M24.97 81.543c-1.086.618-2.029 1.156-2.973 1.695-.246.14-.479.31-.738.418-.365.152-.771.222-.992-.207-.21-.404-.004-.733.36-.947 1.164-.686 2.334-1.36 3.687-2.147-1.088-.627-2.081-1.175-3.046-1.767-.5-.306-1.411-.533-.977-1.322.455-.827 1.097-.109 1.602.161.989.527 1.952 1.104 3.076 1.748v-3.34c0-.283-.008-.567.005-.85.021-.445.177-.86.676-.862.511-.003.652.406.651.862 0 1.039-.006 2.077.008 3.116.004.302-.082.619.139 1.022l2.837-1.633q.368-.211.737-.421c.413-.236.802-.237 1.05.214.24.436-.055.731-.387.933-.915.552-1.854 1.064-2.771 1.611-.262.156-.59.234-.782.6 1.082.63 2.162 1.252 3.235 1.887.422.25 1.037.491.686 1.114-.374.664-.927.268-1.388.008-.903-.51-1.808-1.02-2.691-1.562-.545-.333-.691-.188-.677.409.027 1.101.011 2.203.006 3.305-.002.451-.004.96-.619.973-.658.014-.704-.521-.709-1.005-.014-1.28-.005-2.56-.005-4.013M56.826 85.765l3.854-6.654c.351.588.682 1.037.9 1.536.278.635.579.615 1.132.292 3.795-2.22 7.619-4.391 11.411-6.614.607-.356.87-.295 1.208.327.812 1.496.847 1.48-.616 2.325-3.563 2.057-7.118 4.127-10.699 6.151-.604.342-.77.605-.329 1.191.311.413.524.898.834 1.445z"/><path fill="#fff" d="M44.162 20.966c-.218-.721-.345-1.239-.529-1.736-1.263-3.41-.333-6.452 1.687-9.221 2.38-3.262 5.865-4.532 9.721-4.863 2.468-.212 4.971-.354 7.332.731 1.957.9 3.604 2.181 4.831 3.957 1.62 2.347 2.04 4.796.706 7.458-.836 1.669-.771 1.702 1.076 1.803 2 .11 3.854.588 5.282 2.12 1.398 1.5 1.759 3.202 1.004 5.129-.668 1.704-.665 1.713 1.075 2.392 1.329.52 2.569 1.182 3.605 2.181 3.271 3.152 2.833 7.506-.959 10.029-2.479 1.649-5.226 2.264-8.138 2.265-19.05.012-38.099.01-57.148.003-3.578-.002-6.952-2.662-8.071-6.31-2.51-8.179 3.009-17.136 11.446-18.606 3.706-.646 7.076.187 10.073 2.377 1.067.78 1.861.824 2.99.136 3.594-2.192 7.387-2.429 11.293-.836.836.338 1.696.618 2.724.991"/></g></svg>