<svg xmlns="http://www.w3.org/2000/svg" xml:space="preserve" width="113.39" height="113.39" viewBox="0 0 113.39 113.39"><g fill-rule="evenodd" clip-rule="evenodd"><path fill="#fff" d="M.188 88.255c0-29.071.003-58.144-.019-87.216 0-.708.16-.868.868-.868q55.845.031 111.689 0c.708 0 .872.159.868.868-.03 7.15-.018 14.3-.018 21.45-.437.789-1.216 1.159-1.947 1.583-6.807 3.944-13.599 7.915-20.402 11.863-3.756 2.18-7.488 4.401-11.269 6.537q-.247.14-.487.29c-.962.598-1.051.871-.483 1.814 1.459 2.428 2.868 4.885 4.303 7.327 2.265 3.853 4.577 7.677 6.813 11.546.596 1.031.529 1.368-.47 2.009-2.279 1.46-4.653 2.763-6.969 4.163-1.247.755-1.514.635-2.351-.767-3.483-5.837-6.886-11.722-10.325-17.585a34 34 0 0 0-.732-1.212c-.506-.783-.816-.871-1.633-.393-2.825 1.652-5.647 3.31-8.48 4.948-8.416 4.869-16.81 9.778-25.217 14.663-6.203 3.604-12.402 7.218-18.602 10.83-4.621 2.694-9.234 5.404-13.878 8.061-.403.234-.803.571-1.259.089"/><path fill="#797979" d="M113.578 65.388v48.191c-.392.188-.807.089-1.209.089-27.116.006-54.231.005-81.344.005-.168-.027-.407.077-.472-.176-.073-.283.098-.482.319-.626a43 43 0 0 1 1.854-1.133c8.618-4.969 17.203-9.995 25.81-14.985 9.097-5.275 18.187-10.561 27.278-15.843 8.766-5.092 17.542-10.164 26.294-15.28.44-.256.899-.664 1.47-.242"/><path fill="#fff" d="M30.604 113.564c.503.005 1.006.014 1.51.014l81.464.001c-.042.058.095.196-.095.19-.252-.008-.504-.002-.756-.002-37.229 0-74.46-.002-111.689.018-.708.001-.896-.156-.869-.869.061-1.667.02-3.338.02-5.007.274-.556.711-.934 1.246-1.242 6.649-3.846 13.285-7.715 19.925-11.578q11.47-6.671 22.938-13.345a33736 33736 0 0 1 30.778-17.899c1.223-.71 1.516-.631 2.269.572 1.02 1.628 1.969 3.297 2.928 4.961.594 1.031.522 1.298-.481 1.9-3.671 2.204-7.395 4.318-11.092 6.477-5.247 3.063-10.507 6.105-15.758 9.16-7.973 4.639-15.948 9.272-23.919 13.914-5.876 3.421-11.759 6.831-17.632 10.259-1.087.635-2.176 1.265-3.354 1.97.562.039.925-.188 1.292-.4 4.91-2.829 9.797-5.698 14.698-8.541 7.652-4.438 15.295-8.893 22.944-13.335q7.922-4.6 15.834-9.219c6.552-3.825 13.139-7.59 19.673-11.444 9.897-5.838 19.896-11.5 29.798-17.327.385-.226.789-.585 1.303-.254v8.315c-.25.487-.602.873-1.083 1.148-7.238 4.14-14.426 8.367-21.642 12.546a6486 6486 0 0 0-17.303 10.059c-7.284 4.248-14.584 8.471-21.872 12.713-8.893 5.177-17.798 10.333-26.687 15.516-.163.095-.337.17-.545.284 1.694 0 3.348-.017 5 .008.428.006.907-.065 1.157.437M.188 106.397v-14.93c.277-.59.728-.989 1.295-1.316 6.436-3.711 12.849-7.463 19.27-11.2q8.245-4.797 16.488-9.598 11.955-6.966 23.919-13.915c2.097-1.218 4.181-2.457 6.29-3.65.219-.124.433-.258.659-.368 1.017-.491 1.335-.419 1.928.571.905 1.512 1.778 3.044 2.676 4.563q1.394 2.357 2.781 4.719c.683 1.161.611 1.524-.549 2.195-2.781 1.606-5.548 3.236-8.326 4.847-5.556 3.222-11.102 6.46-16.653 9.688-8 4.654-16.004 9.303-23.999 13.966-6.2 3.616-12.416 7.206-18.606 10.839-2.009 1.18-4.035 2.329-6.041 3.515-.361.212-.732.402-1.132.074"/><path fill="#020202" d="M.188 106.397c7.365-4.277 14.734-8.55 22.097-12.832 17.526-10.195 35.047-20.4 52.584-30.577.72-.417.699-.719.314-1.358a446 446 0 0 1-5.496-9.343c-.44-.771-.749-.856-1.533-.398-16.205 9.465-32.43 18.896-48.649 28.336Q9.845 85.845.188 91.468v-3.213c.377.012.633-.257.923-.426 21.876-12.724 43.748-25.454 65.625-38.175.691-.401 1.396-1.295 2.103-1.011.586.236.876 1.233 1.272 1.909 3.611 6.146 7.229 12.288 10.808 18.454.403.695.708.738 1.354.342a292 292 0 0 1 7.043-4.197c.707-.408.849-.734.394-1.496-3.834-6.425-7.62-12.877-11.421-19.321-.653-1.109-.65-1.105.428-1.729 5.771-3.334 11.542-6.665 17.307-10.009 5.574-3.234 11.139-6.485 16.712-9.722.265-.154.5-.394.843-.386v3.023c-.271.554-.708.933-1.237 1.239-7.842 4.533-15.653 9.121-23.498 13.649-2.315 1.337-4.613 2.703-6.929 4.04-.955.551-1.015.809-.452 1.807 1.56 2.768 3.214 5.48 4.805 8.23.444.769.773.836 1.637.342 2.839-1.625 5.656-3.288 8.485-4.93 5.358-3.111 10.7-6.251 16.074-9.336.36-.207.704-.455 1.115-.112v1.512c-.223.632-.701 1.009-1.262 1.33-3.444 1.979-6.872 3.983-10.308 5.975-3.149 1.824-6.24 3.754-9.449 5.469-1.196.64-2.302 1.406-3.473 2.076-.903.517-.974.771-.476 1.651.743 1.314 1.489 2.629 2.295 3.907.523.832.774.87 1.612.433 3.261-1.703 6.31-3.771 9.538-5.526 2.78-1.513 5.41-3.279 8.202-4.768.815-.434 1.681-.759 2.395-1.378.283-.246.646-.235.925.091v1.323c-5.688 3.322-11.369 6.653-17.063 9.966-28.957 16.846-57.92 33.68-86.859 50.556-1.035.604-2.03.447-3.08.526-.038-.395.295-.409.476-.514a63708 63708 0 0 1 72.42-42.093c.774-.449.802-.759.354-1.465a102 102 0 0 1-3.017-5.124c-.337-.609-.58-.68-1.192-.322-9.557 5.582-19.132 11.134-28.699 16.697Q23.925 94.14.934 107.514c-.243.142-.497.264-.745.396z"/><path fill="#fff" d="M113.578 40.442q-12.749 7.413-25.495 14.827c-1.415.823-1.414.827-2.26-.616-1.776-3.03-3.543-6.064-5.337-9.084-.283-.475-.284-.686.251-.995 10.843-6.284 21.672-12.593 32.505-18.896.107-.063.224-.111.336-.166z"/><path fill="#020202" d="M30.604 113.564h-7.562c.252-.417.648-.527.965-.712q25.371-14.755 50.748-29.501 18.992-11.04 37.986-22.077c.27-.156.557-.282.836-.422v4.535c-4.607 2.658-9.222 5.304-13.821 7.975Q65.54 93.239 31.328 113.123c-.243.142-.482.294-.724.441"/><path fill="#fff" d="M113.578 51.214c-.379-.014-.634.257-.925.426-6.77 3.931-13.54 7.861-20.292 11.821-.75.439-1.154.527-1.627-.386-.893-1.729-1.907-3.401-2.948-5.048-.424-.671-.244-.914.367-1.269 8.244-4.77 16.474-9.565 24.706-14.355.244-.142.479-.299.719-.449z"/><path fill="#020202" d="M57.638 21.9c-.239 4.843-.448 9.688-.731 14.527-.123 2.104-1.464 3.355-3.359 3.336s-3.185-1.274-3.303-3.398c-.277-4.967-.492-9.938-.728-14.906-.174-3.648-.339-7.297-.509-10.945-.042-.912-.159-1.832.004-2.734.442-2.464 2.615-4.046 5.164-3.803 2.218.212 4.073 2.256 4.015 4.616-.088 3.525-.287 7.047-.443 10.57-.04.912-.095 1.823-.143 2.735zM58.242 49.051c.013 2.611-2.031 4.68-4.638 4.697a4.63 4.63 0 0 1-4.688-4.646c-.011-2.606 2.045-4.689 4.637-4.698a4.64 4.64 0 0 1 4.689 4.647M43.228 84.81c2.829.01 2.516-.287 2.529 2.516.003.598-.016 1.195.003 1.792.02.63-.292.953-.894.963-1.163.02-2.327.015-3.49.001-.563-.007-.885-.33-.896-.884a113 113 0 0 1-.005-3.49c.008-.61.338-.912.959-.9.598.01 1.196.002 1.794.002M74.264 72.185h-1.227c-1.373-.002-1.471-.095-1.476-1.426-.004-.943.012-1.888-.003-2.831-.012-.702.281-1.051 1.01-1.038 1.069.019 2.14.027 3.209-.003.782-.021 1.076.366 1.074 1.088-.003 1.039-.008 2.077.002 3.115.007.804-.392 1.137-1.174 1.099-.47-.024-.943-.004-1.415-.004M58.605 81.102c-2.729-.034-2.606.421-2.597-2.563.002-.534.013-1.069-.001-1.604-.021-.732.3-1.123 1.056-1.121q1.603.007 3.207 0c.7-.003 1.035.325 1.024 1.038a86 86 0 0 0 .002 3.207c.017.77-.332 1.088-1.088 1.048-.532-.028-1.067-.005-1.603-.005M27.573 99.026c-.536 0-1.071-.011-1.606.003-.724.019-1.024-.348-1.02-1.043q.013-1.605 0-3.212c-.005-.7.318-1.046 1.029-1.04 1.102.009 2.204.004 3.306.002.671-.001.968.338.962.998a96 96 0 0 0 .004 3.212c.018.76-.31 1.109-1.069 1.084-.535-.017-1.071-.004-1.606-.004M9.439 105.309c0-.503.024-1.008-.006-1.509-.046-.755.287-1.119 1.038-1.118q1.604.005 3.209-.001c.754-.004 1.071.373 1.057 1.115a90 90 0 0 0-.001 3.113c.012.764-.353 1.075-1.099 1.06a66 66 0 0 0-3.113.001c-.822.021-1.138-.361-1.091-1.151.031-.503.006-1.006.006-1.51M66.2 72.87c-.484 1.109-.91 2.076-1.331 3.046-.194.446-.401.954-1.01.673-.581-.269-.387-.768-.194-1.221.578-1.356 1.151-2.716 1.731-4.072.161-.377.322-.8.829-.777.446.019.594.399.745.754q.889 2.077 1.787 4.15c.2.465.333.96-.262 1.197-.554.222-.785-.249-.966-.652-.432-.971-.84-1.953-1.329-3.098M19.603 99.712c-.512 1.192-.923 2.176-1.356 3.149-.184.413-.43.851-.982.602-.534-.241-.417-.712-.235-1.139.613-1.444 1.236-2.885 1.854-4.327.143-.332.328-.635.736-.626.406.01.589.337.727.655.623 1.44 1.234 2.886 1.847 4.331.188.444.242.898-.289 1.118-.504.209-.747-.182-.919-.569-.445-.997-.87-2.002-1.383-3.194M4.076 108.667c-.479 1.12-.893 2.09-1.31 3.058-.196.455-.454.922-1.037.67-.602-.26-.384-.769-.193-1.213.591-1.384 1.188-2.765 1.779-4.149.153-.36.324-.689.793-.677.423.012.577.324.716.648.616 1.441 1.227 2.885 1.847 4.324.179.415.25.839-.221 1.058-.518.24-.81-.11-1.003-.559-.433-1.003-.869-2.005-1.371-3.16M50.664 81.812c-.518 1.198-.93 2.142-1.332 3.089-.199.47-.471.911-1.038.637-.504-.244-.359-.734-.181-1.158.598-1.414 1.195-2.827 1.8-4.237.139-.322.313-.645.723-.649.451-.005.636.326.79.69.601 1.412 1.214 2.818 1.813 4.231.183.432.27.92-.243 1.145-.523.229-.8-.184-.986-.612-.421-.969-.833-1.939-1.346-3.136M35.128 90.773c-.493 1.146-.901 2.085-1.303 3.026-.195.461-.448.938-1.026.684-.587-.258-.374-.783-.187-1.227.586-1.39 1.182-2.774 1.774-4.161.139-.325.299-.635.715-.657.478-.025.641.333.792.683a387 387 0 0 1 1.81 4.247c.176.42.298.912-.257 1.126-.533.206-.792-.197-.979-.632-.417-.966-.837-1.932-1.339-3.089M50.618 65.235c.132.125.181.16.216.206.442.588.565 1.675 1.236 1.742.616.063 1.316-.614 1.967-.988 3.372-1.938 6.75-3.865 10.101-5.839.586-.345.821-.253 1.139.311.832 1.478.86 1.466-.588 2.303-3.585 2.07-7.163 4.153-10.764 6.194-.576.326-.702.582-.302 1.129.309.421.524.909.864 1.519-2.446 0-4.756.009-7.066-.007-.546-.004-.401-.319-.221-.633 1.128-1.949 2.248-3.903 3.418-5.937M91.064 58.089q-.001-.612 0-1.226c.004-1.25.11-1.364 1.319-1.371.975-.006 1.95.013 2.924-.004.712-.013 1.046.321 1.045 1.021-.001 1.069-.007 2.139.003 3.207.006.699-.319 1.052-1.022 1.052-1.101-.001-2.201.003-3.302 0-.647-.002-.993-.296-.97-.98.02-.566.004-1.133.003-1.699M109.208 51.797c-2.919-.014-2.628.316-2.626-2.623.001-2.873-.337-2.666 2.702-2.669 2.836-.003 2.593-.182 2.588 2.602-.004 3.02.28 2.674-2.664 2.69M101.22 52.493c-.48 1.125-.886 2.096-1.311 3.059-.192.434-.42.948-1.02.692-.589-.252-.41-.757-.216-1.21.605-1.41 1.215-2.817 1.813-4.23.142-.336.319-.64.718-.646s.6.294.741.625c.63 1.468 1.256 2.937 1.886 4.403.18.42.196.834-.261 1.054-.483.231-.77-.105-.947-.503-.456-1.024-.892-2.058-1.403-3.244"/><path fill="#fbfbfb" d="M41.803 87.402c.018-1.426-.159-1.249 1.34-1.259 1.286-.008 1.294-.001 1.284 1.39-.011 1.375.185 1.218-1.368 1.227-1.256.008-1.256.001-1.256-1.358"/><path fill="#fcfcfc" d="M75.514 69.547c-.016 1.554.11 1.3-1.396 1.302-1.381.001-1.216.222-1.213-1.473.003-1.368-.182-1.146 1.431-1.149 1.289-.002 1.165-.225 1.178 1.32"/><path fill="#fbfbfb" d="M59.962 78.45c-.024 1.539.18 1.315-1.377 1.318-1.338.003-1.231.218-1.231-1.277.001-1.555-.118-1.327 1.379-1.34 1.229-.009 1.229-.001 1.229 1.299"/><path fill="#fdfdfd" d="M28.914 96.453c-.03 1.45.214 1.229-1.336 1.243-1.301.013-1.313.003-1.296-1.476.016-1.353-.22-1.149 1.529-1.148 1.283 0 1.081-.214 1.103 1.381"/><path fill="#fcfcfc" d="M13.402 105.299c-.028 1.499.228 1.312-1.364 1.325-1.269.011-1.278.002-1.266-1.409.012-1.306-.219-1.193 1.303-1.193 1.559-.001 1.303-.099 1.327 1.277"/><path fill="#fdfdfd" d="M92.398 58.081c.027-1.401-.22-1.248 1.336-1.258 1.283-.009 1.283-.001 1.283 1.333-.001 1.268-.001 1.275-1.359 1.265-1.488-.012-1.231.131-1.26-1.34M109.198 50.466c-1.291 0-1.302 0-1.287-1.375.015-1.447-.221-1.244 1.425-1.245 1.413-.001 1.199-.186 1.201 1.478.001 1.316.19 1.121-1.339 1.142"/></g></svg>