<svg xmlns="http://www.w3.org/2000/svg" xml:space="preserve" width="113.39" height="113.39" viewBox="0 0 113.39 113.39"><g fill-rule="evenodd" clip-rule="evenodd"><path fill="#fff" d="M113.579 60.664v21.733c-.769 1.22-2.119 1.647-3.267 2.316-6.791 3.961-13.582 7.923-20.381 11.87-9.356 5.431-18.693 10.896-28.057 16.316-.617.356-1.325.414-1.968.68h-37.04c-.224-.707.381-.852.78-1.087 3.878-2.285 7.782-4.524 11.668-6.798 4.13-2.416 8.28-4.796 12.399-7.229.261-.154.59-.244.696-.604-.327-.152-.541.084-.769.215a5669 5669 0 0 0-24.567 14.297c-.903.528-1.854.918-2.854 1.206-6.458 0-12.917-.003-19.376.005-.419.001-.825.065-.655-.572.289-.721.903-1.099 1.534-1.462 10.688-6.162 21.332-12.402 32.001-18.597 6.805-3.95 13.603-7.912 20.403-11.87.595-.347.975-.771.963-1.49-.012-.766-.245-.93-.914-.544-1.771 1.022-3.536 2.059-5.305 3.085-9.229 5.354-18.446 10.729-27.67 16.091-6.558 3.812-13.104 7.643-19.672 11.438-.418.242-.837.658-1.341.137 0-36.253.002-72.506-.019-108.76 0-.708.16-.868.868-.868q55.845.031 111.689 0c.708 0 .869.16.868.868-.024 14.331-.018 28.663-.018 42.994-.368.668-1.002 1.003-1.635 1.367-3.409 1.962-6.794 3.967-10.2 5.933-.784.453-.87.708-.432 1.522 1.227 2.271 2.64 4.434 3.939 6.662.555.951 1.126 1.894 1.656 2.859.364.665.25 1.204-.418 1.604a262 262 0 0 1-6.61 3.84c-.908.507-1.374.323-1.946-.613a367 367 0 0 1-5.089-8.615c-.825-1.434-.941-1.512-2.393-.663-4.698 2.749-9.413 5.471-14.112 8.22-1.656.969-3.322 1.923-4.969 2.909-.243.146-.508.267-.68.501-.344.467-.484 1.058-.172 1.502.355.506.81-.002 1.146-.197 4.651-2.704 9.306-5.404 13.95-8.121 2.01-1.176 4.03-2.334 6.041-3.508.822-.479 1.219-.388 1.717.434a268 268 0 0 1 4.44 7.572c.559.992.465 1.305-.533 1.904-4.448 2.677-8.971 5.229-13.448 7.856-3.202 1.88-6.418 3.736-9.633 5.594-.27.155-.559.292-.788.641.442.153.72-.131 1.007-.299 3.829-2.241 7.666-4.468 11.502-6.697 8.135-4.727 16.265-9.463 24.396-14.192q1.062-.616 2.129-1.222c.347-.195.71-.473 1.139-.163"/><path fill="#797979" d="M113.579 86.933c0 8.631-.01 17.261.018 25.891.003.647-.127.775-.774.774-14.992-.023-29.985-.018-44.978-.018-.22-.719.435-.849.807-1.077 1.85-1.135 3.735-2.212 5.614-3.3 5.282-3.057 10.551-6.136 15.827-9.204 7.342-4.27 14.692-8.526 22.019-12.824.437-.257.897-.665 1.467-.242"/><path fill="#020202" d="M113.579 86.933c-4.112 2.376-8.23 4.742-12.336 7.129a41727 41727 0 0 0-32.302 18.797c-.377.22-.731.479-1.097.722h-7.938c3.216-1.897 6.423-3.81 9.648-5.688a54316 54316 0 0 1 43.099-25.08c.289-.168.541-.448.925-.414zM113.579 60.664q-15.204 8.86-30.405 17.721c-3.018 1.759-6.057 3.48-9.036 5.302-.89.544-1.408.42-1.904-.477l6.251-3.637c6.197-3.605 12.389-7.223 18.602-10.803.688-.397.737-.67.322-1.345a219 219 0 0 1-4.38-7.461c-.367-.651-.627-.636-1.211-.294-6.919 4.055-13.854 8.082-20.786 12.115-.318.185-.646.354-1.103.604 0-.962.021-1.798-.007-2.633-.019-.55.411-.656.748-.853q9.535-5.553 19.075-11.105.285-.166.569-.334c1.83-1.079 1.819-1.072 2.869.734 1.691 2.91 3.415 5.802 5.085 8.724.415.728.762.865 1.521.395 2.077-1.289 4.202-2.502 6.333-3.704.568-.321.664-.567.311-1.153-1.901-3.148-3.752-6.328-5.629-9.492-.741-1.25-.736-1.217.513-1.937 3.785-2.185 7.556-4.396 11.338-6.585.289-.167.539-.45.925-.411v3.023c-.417.943-1.333 1.296-2.134 1.763-2.413 1.407-4.839 2.792-7.245 4.21-1.032.609-1.108.879-.507 1.867 1.208 1.984 2.349 4.008 3.532 6.006.522.881.761.938 1.653.431 1.229-.697 2.427-1.446 3.668-2.121.35-.189.668-.365 1.032-.061zM.189 109.8c.404-.01.686-.293 1.004-.479Q27.928 93.775 54.659 78.22c.24-.14.486-.271.896-.498 0 1.011.005 1.898-.001 2.786-.004.499-.471.549-.77.724-10.642 6.205-21.293 12.398-31.942 18.594Q11.515 106.418.19 113.013z"/><path fill="#fff" d="M113.579 59.152c-1.735 1.008-3.48 1.999-5.198 3.034-.498.299-.782.31-1.1-.238a534 534 0 0 0-4.631-7.861c-.274-.457-.139-.63.261-.859 3.562-2.047 7.113-4.111 10.668-6.17z"/><path fill="#020202" d="M20.221 113.58c.153-.31.482-.386.744-.537a9446 9446 0 0 1 27.22-15.823c.268-.155.621-.856 1.034-.123.32.57.238.945-.409 1.32-8.38 4.843-16.74 9.718-25.103 14.59-.292.17-.638.269-.84.573zM68.588 60.485c0 6.989.008 13.979-.015 20.969-.002.642.192 1.004.742 1.349 4.817 3.013 6.912 9.03 5.029 14.337-1.95 5.494-7.259 8.828-13.004 8.165-5.249-.605-9.379-4.349-10.601-9.608-1.128-4.86 1.087-10.159 5.442-12.887.603-.377.741-.793.74-1.448-.017-13.822-.008-27.645-.018-41.466-.001-2.175.694-3.955 2.688-5.035 2.44-1.321 6.308-.657 7.894 1.317.854 1.063 1.103 2.299 1.102 3.622q-.001 10.342.001 20.685M27.911 38.773c-5.981 0-11.964-.035-17.945.014-3.53.028-5.976-1.638-7.364-4.737-2.651-5.918-.544-14 5.611-17.418 3.468-1.926 6.877-1.625 10.144.536.403.268.658.294 1.077.061 1.811-1.008 3.738-1.462 5.805-1.021.684.146.59-.297.638-.706.493-4.278 2.505-7.527 6.644-9.045 3.119-1.144 6.362-1.463 9.35.461 3.019 1.944 4.795 4.683 4.619 8.402-.038.813.161 1.169.911 1.521 2.513 1.184 3.885 3.717 3.531 6.397-.073.557.143.783.541 1.046 1.869 1.229 3.13 2.904 3.53 5.133.593 3.306-1.162 6.625-4.24 8.204-1.637.84-3.361 1.165-5.188 1.159-5.888-.018-11.776-.007-17.664-.007M86.67 2.004c6.725-.046 12.285 5.438 12.349 12.178.063 6.788-5.533 12.433-12.32 12.427-6.733-.006-12.228-5.494-12.269-12.256C74.39 7.54 79.831 2.05 86.67 2.004M81.118 76.352l-6.99.001c-.49 0-.521-.232-.311-.597l3.501-6.026c.319.552.596.96.801 1.4.296.638.606.784 1.278.382 2.526-1.514 5.093-2.962 7.645-4.433 1.304-.751 2.618-1.481 3.908-2.254.418-.251.609-.217.872.223.95 1.589.978 1.59-.626 2.521-3.52 2.045-7.037 4.093-10.582 6.094-.611.345-.777.602-.349 1.192.306.421.522.907.853 1.497M40.604 49.018c1.176 2.676 2.365 5.097 3.308 7.609.886 2.362-.236 4.597-2.342 5.154-2.703.715-5-1.555-4.498-4.458.063-.368.155-.742.306-1.082 1.035-2.347 2.09-4.686 3.226-7.223M26.587 41.368c.903 2.843 2.684 5.32 3.364 8.245.473 2.03-.806 3.947-2.757 4.387-1.839.414-3.742-.727-4.236-2.588-.274-1.032-.159-2.077.263-3.048 1.014-2.332 2.072-4.645 3.113-6.966q.127-.013.253-.03M11.491 48.093c1.021 2.862 2.53 5.284 3.373 7.981.598 1.911-.055 3.555-1.533 4.453-1.343.815-3.024.702-4.212-.332-1.469-1.278-1.572-2.955-.943-4.586.957-2.477 2.134-4.869 3.315-7.516M21.036 59.582c1.004 2.718 2.287 5.029 3.24 7.483.478 1.229.554 2.521-.152 3.734-.8 1.375-2.462 2.067-3.971 1.671-1.635-.431-2.761-1.849-2.747-3.516.004-.467.052-.954.192-1.396.856-2.701 2.344-5.12 3.438-7.976M94.174 26.629c.362.004.565.235.728.517q1.84 3.177 3.672 6.359c.236.411.366.854-.163 1.134-.488.26-.769-.103-.979-.464a572 572 0 0 1-3.714-6.442c-.338-.597-.095-1.102.456-1.104M106.416 2.237c.336-.015.563.082.678.339.109.244.101.501-.104.698a2.4 2.4 0 0 1-.453.33 2930 2930 0 0 1-6.195 3.587 3 3 0 0 1-.422.202c-.335.122-.652.056-.822-.255-.19-.344-.103-.691.25-.896 2.252-1.312 4.509-2.613 6.768-3.914.104-.06.237-.072.3-.091M67.054 2.236c.138.064.372.154.586.277q3.018 1.734 6.027 3.484c.423.246 1.021.48.643 1.121-.358.607-.872.282-1.311.03q-3.1-1.782-6.194-3.573c-.346-.2-.614-.456-.497-.907.084-.323.325-.439.746-.432M105.543 14.955c-1.192 0-2.385-.011-3.576.006-.495.007-.954-.119-.967-.649-.014-.597.471-.711.997-.708 2.416.011 4.832.006 7.248.004.471-.001.934.062.954.647.022.667-.485.702-.985.701q-1.835-.002-3.671-.001M79.908 27.223c-.123.276-.215.544-.353.785-1.155 2.014-2.32 4.021-3.479 6.034-.176.306-.354.616-.733.673-.52.077-.871-.514-.564-1.059 1.246-2.215 2.53-4.408 3.801-6.609.195-.34.478-.487.866-.39.291.074.338.332.462.566M87.355 33.136l.001 3.672c-.001.467-.065.954-.646.958-.565.004-.683-.479-.685-.941-.007-2.448-.003-4.896.004-7.343.002-.447.171-.856.664-.866.508-.01.661.393.661.85zM99.845 21.148c.139-.009.37.164.613.305l5.947 3.437c.44.255.981.524.622 1.135-.319.544-.824.284-1.241.044-2.066-1.188-4.128-2.384-6.191-3.576-.343-.198-.64-.434-.543-.888.067-.324.314-.445.793-.457M74.391 21.78c-.03.329-.256.537-.538.7-2.125 1.226-4.249 2.454-6.378 3.673-.377.216-.811.331-1.081-.121-.265-.444.005-.783.395-1.009 2.15-1.244 4.299-2.493 6.463-3.714.578-.326 1.129-.074 1.139.471M67.732 14.942c-1.161 0-2.322-.007-3.483.004-.51.005-1.026-.058-1.022-.678.003-.546.483-.657.961-.656q3.625.001 7.25.004c.476 0 .938.109.927.683-.011.582-.491.645-.96.644q-1.836-.002-3.673-.001"/><path fill="#fff" d="M65.969 61.274c0 7.242.01 14.484-.018 21.727-.002.697.213 1.029.844 1.343 4.701 2.336 6.782 7.393 5.042 12.12-1.485 4.034-5.478 6.604-9.838 6.331-4.08-.254-7.836-3.524-8.711-7.585-.91-4.222 1.008-8.552 4.839-10.522 1.129-.58 1.439-1.226 1.426-2.438-.066-6.014-.018-12.028-.046-18.042-.004-.726-.036-23.657-.036-23.657-.149-2.848.949-3.452 2.212-3.669.551-.095 1.131-.034 1.697-.026 1.595.023 2.583 1.001 2.585 2.6.007 7.021.003 14.043.004 21.065zM29.066 20.315c-.201-1.278-.51-2.412-.536-3.553-.117-5.188 3.432-8.424 8.813-8.481 3.477-.037 6.828 3.769 6.516 6.949-.098.995-.521 1.87-.852 2.78-.167.459-.182.699.41.711.501.01.999.113 1.5.162 2.447.238 3.917 2.452 3.201 4.828-.483 1.606-.483 1.606 1.014 2.323 2.144 1.027 3.469 2.963 3.314 4.841-.189 2.3-1.762 4.142-4.107 4.867-.947.293-1.908.363-2.889.362-11.839-.004-23.679-.043-35.518.033-2.313.015-4.296-1.603-5.037-3.433-1.831-4.521-.194-10.354 3.748-13.206 2.646-1.913 5.798-1.903 8.417.029 1.671 1.231 1.668 1.227 3.44.17 1.781-1.063 3.635-1.303 5.592-.502.946.387 1.913.722 2.974 1.12M86.601 23.916c-5.522-.144-9.645-4.563-9.495-10.183.132-4.987 4.684-9.161 9.854-9.037 5.202.125 9.49 4.567 9.389 9.727-.105 5.238-4.611 9.627-9.748 9.493M40.567 52.347c.827 1.951 1.892 3.534 2.264 5.403.26 1.308-.496 2.474-1.698 2.746-1.175.267-2.367-.374-2.688-1.501-.23-.811-.112-1.627.221-2.394.585-1.351 1.199-2.69 1.901-4.254M26.404 44.563c.795 1.799 1.769 3.345 2.211 5.128.26 1.046.007 1.947-.865 2.603-.747.563-1.585.603-2.399.158-.933-.51-1.245-1.348-1.171-2.385.053-.74.323-1.408.614-2.065.491-1.108 1.025-2.196 1.61-3.439M11.438 51.5c.723 1.596 1.388 3.011 2.002 4.447.259.605.382 1.26.239 1.931-.254 1.191-1.29 1.961-2.472 1.834-1.146-.123-1.977-1.047-1.997-2.24a4.4 4.4 0 0 1 .388-1.92c.583-1.281 1.164-2.563 1.84-4.052M21.041 63.084c.713 1.596 1.383 3.035 1.997 4.497.284.676.346 1.412.12 2.124-.323 1.022-1.382 1.665-2.434 1.524-1.115-.148-1.973-1.123-1.987-2.283-.007-.538.113-1.059.301-1.563.53-1.435 1.216-2.795 2.003-4.299"/><path fill="#020202" d="M64.458 75.783c0 2.991.015 5.983-.013 8.975-.005.565.172.818.715 1.001 3.026 1.015 4.848 3.162 5.281 6.279.445 3.202-.754 5.862-3.497 7.614-2.769 1.769-5.694 1.756-8.451-.038-2.696-1.754-3.867-4.388-3.445-7.553.407-3.048 2.171-5.191 5.091-6.229.758-.271.912-.611.909-1.334-.026-5.889-.028-11.778-.028-17.666 0-.913-.014-.913.865-.913l1.828-.002c.746 0 .746-.009.731.77-.046 2.424.014 6.671.014 9.096"/><path fill="#fefefe" d="M62.773 88.688c1.487-.798 3.173-.566 4.351.535 1.165 1.091 1.538 2.875.907 4.341-.588 1.368-1.924 2.278-3.25 2.165 1.155-2.832.416-5.149-2.008-7.041"/></g><g fill="#020202" fill-rule="evenodd" clip-rule="evenodd"><path d="M59.167 55.765h3.469v2.547h-3.469zM59.167 60.601h3.469v2.547h-3.469zM59.167 50.905h3.469v2.547h-3.469zM59.167 46.093h3.469v2.547h-3.469zM59.167 41.21h3.469v2.547h-3.469z"/></g></svg>