<svg xmlns="http://www.w3.org/2000/svg" xml:space="preserve" width="113.39" height="113.39" viewBox="0 0 113.39 113.39"><g fill-rule="evenodd" clip-rule="evenodd"><path fill="#fff" d="M.188 106.964C.188 71.656.19 36.348.17 1.04c0-.708.16-.869.868-.868q55.845.03 111.689 0c.708 0 .869.159.868.868-.024 14.331-.018 28.662-.018 42.994-.437.79-1.217 1.16-1.948 1.584-6.807 3.947-13.603 7.912-20.405 11.864-2.123 1.233-4.235 2.483-6.368 3.699-1.178.671-1.245.953-.548 2.163a325 325 0 0 1 4.917 8.822c.619 1.159.57 1.306-.507 1.969-1.876 1.154-3.798 2.233-5.702 3.342-.873.508-1.253.375-1.764-.5-1.713-2.936-3.35-5.914-5.014-8.878-.704-1.254-.961-1.387-2.331-.841-3.42 1.361-6.804 2.82-10.263 4.074-3.642 1.32-7.219 2.797-10.814 4.228-4.063 1.616-8.038 3.447-12.042 5.208-4.873 2.142-9.594 4.603-14.291 7.09-6.098 3.228-11.889 6.95-17.277 11.298-1.941 1.566-3.677 3.34-5.583 4.932-.897.749-1.493 1.79-2.391 2.542-.303.253-.575.634-1.058.334M113.578 60.663v21.733c-.273.557-.711.937-1.244 1.245-8.575 4.972-17.14 9.962-25.708 14.945-6.202 3.608-12.412 7.202-18.598 10.839-1.979 1.164-3.987 2.282-5.956 3.466-.614.37-1.342.39-1.977.688H22.866c-.272-.597.21-.779.571-1.005 2.429-1.517 4.938-2.898 7.41-4.345 5.568-3.26 11.151-6.493 16.729-9.736 7.999-4.649 15.99-9.313 23.993-13.957 5.744-3.333 11.468-6.7 17.205-10.045 7.803-4.549 15.614-9.083 23.417-13.633.416-.243.86-.6 1.387-.195"/><path fill="#fff" d="M20.409 113.579c-6.366 0-12.731-.027-19.097.028-.976.009-1.333-.206-1.124-1.163.532-2.112 2.214-3.448 3.546-4.961a69 69 0 0 1 11.292-10.248c5.263-3.814 10.831-7.092 16.568-10.135a209 209 0 0 1 15.568-7.462c5.777-2.474 11.53-5.037 17.491-7.095 3.442-1.188 6.742-2.793 10.145-4.118.853-.333 1.189-.279 1.648.497 1.583 2.683 3.125 5.39 4.557 8.157.556 1.073.434 1.402-.576 1.988-8.084 4.69-16.154 9.403-24.233 14.102-9.686 5.632-19.372 11.26-29.05 16.905-1.358.793-2.749 1.537-4.058 2.41-.828.554-1.769.77-2.677 1.095"/><path fill="#797979" d="M113.578 86.932c0 8.631-.01 17.261.018 25.891.003.647-.127.775-.774.774-14.992-.023-29.985-.018-44.978-.018-.22-.719.435-.849.807-1.077 1.85-1.136 3.735-2.212 5.614-3.3 5.282-3.057 10.551-6.136 15.827-9.204 7.342-4.27 14.692-8.525 22.019-12.824.437-.257.897-.664 1.467-.242"/><path fill="#020202" d="M20.409 113.579c2.772-1.821 5.673-3.429 8.535-5.097 14.512-8.46 29.033-16.902 43.552-25.35 2.629-1.529 5.248-3.076 7.898-4.57.578-.325.619-.592.313-1.131a901 901 0 0 1-4.685-8.364c-.187-.336-.283-.543-.769-.349a2902 2902 0 0 1-15.119 6.045c-7.054 2.791-14.042 5.758-20.889 9.063-5.802 2.803-11.514 5.743-17.001 9.106-5.259 3.224-10.253 6.83-14.656 11.17-2.475 2.438-4.883 4.959-6.851 7.851-.141.206-.296.407-.55.49v-5.48c1.915-1.861 3.709-3.845 5.712-5.621 4.085-3.624 8.478-6.827 13.124-9.688 9.971-6.14 20.57-11.004 31.335-15.546 8.057-3.399 16.287-6.354 24.37-9.679.777-.319 1.082-.102 1.444.554 1.807 3.271 3.678 6.506 5.471 9.783.354.646.607.641 1.174.298a211 211 0 0 1 5.867-3.418c.538-.303.581-.547.28-1.073-1.905-3.329-3.767-6.684-5.662-10.019-.283-.5-.407-.796.236-1.168 9.85-5.703 19.683-11.435 29.522-17.157.157-.091.343-.133.516-.198v3.023c-.494.934-1.461 1.259-2.29 1.744-7.144 4.175-14.31 8.313-21.445 12.501-1.004.589-2.023 1.151-3.03 1.736-.633.368-.814.822-.452 1.485 1.222 2.235 2.441 4.474 3.793 6.636.442.708.775.741 1.67.208 1.893-1.128 3.8-2.229 5.704-3.336 4.787-2.782 9.565-5.581 14.366-8.339.481-.276.987-.914 1.685-.352v1.322c-2.859 1.633-5.728 3.248-8.575 4.9-7.108 4.127-14.208 8.271-21.31 12.409a180358 180358 0 0 0-60.036 35.003c-.282.165-.665.224-.791.604q-1.226.005-2.456.004"/><path fill="#fff" d="M113.578 59.341c-2.765 1.415-5.391 3.074-8.079 4.624a1937 1937 0 0 0-14.143 8.251c-.668.393-1.014.392-1.429-.386-1.402-2.624-2.888-5.204-4.378-7.78-.286-.495-.24-.698.259-.987 9.093-5.269 18.175-10.558 27.258-15.844.16-.093.297-.245.512-.162z"/><path fill="#020202" d="M113.578 86.932c-4.112 2.376-8.23 4.742-12.336 7.129a45230 45230 0 0 0-32.302 18.797c-.377.22-.731.479-1.097.722h-7.748c3.157-1.862 6.306-3.737 9.472-5.582 14.527-8.468 29.06-16.926 43.591-25.387.136-.078.279-.143.42-.214zM70.495 14.421l-5.066 7.717c-.311.473-.708.911-.919 1.425-.758 1.84-2.2 2.532-4.06 3.034-15.075 4.065-30.123 8.228-45.173 12.384-.99.273-1.814.137-2.508-.582-2.227-2.312-3.398-5.113-3.628-8.286-.094-1.31.576-2.195 1.825-2.787A9225 9225 0 0 0 53.705 6.982c1.364-.654 2.561-.802 4.034-.406 4.217 1.133 8.48 2.091 12.722 3.13.381.093.693.105 1.078-.065.881-.389 1.637.058 1.817 1.016.058.305.045.626.045.94q.002 8.975.002 17.949c0 .158.004.315-.003.473-.041 1.074-.553 1.703-1.366 1.685-.805-.018-1.305-.659-1.307-1.754-.009-4.818-.004-9.636-.004-14.454v-1.011q-.113-.03-.228-.064M71.127 45.501c.407-.036.813-.077 1.221-.106.476-.034.938.041.985.614.05.605-.418.683-.892.71-3.874.222-7.67.954-11.449 1.781-6.334 1.386-12.553 3.179-18.687 5.282a129 129 0 0 0-14.651 6.04c-.197.096-.396.202-.605.26-.324.088-.626.056-.815-.283-.195-.351-.033-.62.226-.823.219-.172.483-.288.736-.413 8.189-4.028 16.778-6.978 25.555-9.406 5.487-1.518 11.036-2.764 16.686-3.524.56-.076 1.127-.099 1.69-.146zM75.812 50.997c-.023.564-.443.68-.85.723-4.971.532-9.701 2.045-14.419 3.578-6.196 2.014-12.272 4.332-18.037 7.405-.488.26-1.143.845-1.555.083-.468-.863.478-1.013.977-1.27 9.616-4.944 19.743-8.462 30.297-10.767.886-.194 1.801-.266 2.705-.359.44-.046.818.087.882.607M13.441 74.386c1.173.68 2.204 1.275 3.234 1.873.19.11.397.203.563.344.28.237.475.544.243.905-.251.392-.617.388-.991.175-.874-.497-1.743-1.003-2.617-1.501-.318-.181-.646-.347-1.119-.601v3.311c-.001.314.001.63-.012.944-.017.422-.189.77-.647.776-.463.008-.656-.354-.665-.761-.025-1.133-.052-2.267-.009-3.397.032-.821-.229-.819-.827-.446-.906.564-1.845 1.078-2.77 1.614-.424.246-.87.35-1.142-.155-.246-.458.081-.768.459-.989 1.161-.682 2.326-1.357 3.592-2.094-1.211-.702-2.316-1.347-3.426-1.985-.425-.245-.907-.529-.622-1.083.325-.633.854-.324 1.297-.073 1.087.614 2.167 1.241 3.429 1.967v-3.32c.001-.314-.01-.63.015-.943.03-.406.173-.758.655-.771.501-.014.644.356.653.755.026 1.007.006 2.014.024 3.021.007.366-.096.75.148 1.184l2.924-1.682c.218-.125.432-.26.657-.368.374-.18.771-.216.998.188.258.456-.028.779-.41 1.004-1.163.682-2.333 1.354-3.634 2.108M89.411 44.527c1.156.668 2.17 1.234 3.162 1.836.477.289 1.305.526.847 1.28-.459.755-1.056.107-1.541-.155-1.01-.546-1.998-1.133-3.154-1.794v3.35c-.001.314.001.629-.012.944-.019.424-.201.767-.659.766-.462 0-.645-.368-.654-.774-.023-1.069-.014-2.14-.019-3.209-.005-1.072-.007-1.074-.902-.56q-1.348.778-2.694 1.558c-.425.245-.872.34-1.135-.173-.237-.463.098-.765.474-.985 1.161-.681 2.326-1.356 3.584-2.088-1.215-.703-2.324-1.349-3.438-1.989-.428-.246-.902-.538-.61-1.086.334-.625.861-.308 1.304-.058 1.086.613 2.165 1.24 3.418 1.96 0-1.256-.001-2.341.001-3.427.001-.314-.013-.632.025-.942.046-.374.228-.665.657-.666.441-.002.617.302.628.677.028 1.038.014 2.076.037 3.114.008.365-.104.75.154 1.166 1.092-.627 2.172-1.251 3.256-1.871.445-.254.977-.575 1.314.028s-.222.882-.663 1.139zM15.76 60.817c-1.301.747-2.389 1.367-3.472 1.994-.43.248-.905.5-1.232-.054-.332-.561.143-.856.557-1.101 1.107-.651 2.224-1.288 3.47-2.008l-3.146-1.831c-.217-.126-.449-.234-.646-.387-.298-.231-.465-.554-.245-.905.283-.451.706-.347 1.082-.136 1.146.644 2.282 1.308 3.629 2.083 0-1.295-.024-2.432.011-3.568.018-.575-.249-1.473.714-1.438.87.032.589.892.607 1.436.039 1.124.012 2.25.012 3.565l2.881-1.639c.273-.155.538-.326.817-.468.404-.206.826-.248 1.06.215.206.411-.047.725-.402.934-.867.509-1.741 1.007-2.609 1.513-.317.186-.628.382-1.032.628l2.925 1.707c.244.143.493.276.731.429.348.222.597.534.378.942-.243.455-.655.422-1.058.192-1.173-.668-2.342-1.342-3.576-2.05-.223.897-.075 1.742-.11 2.576-.021.502-.004 1.007-.008 1.51-.003.439-.102.876-.614.906-.584.034-.711-.438-.716-.902-.018-1.314-.008-2.63-.008-4.143M33.332 69.997c0-1.257-.002-2.342.001-3.426.001-.314-.013-.632.025-.942.045-.374.226-.665.655-.669.441-.004.619.3.629.675.03 1.037.025 2.075.033 3.113.002.366 0 .733 0 1.258 1.195-.685 2.223-1.274 3.251-1.861.19-.109.379-.226.58-.313.357-.155.719-.123.907.234.243.462-.044.777-.426 1.002-1.164.683-2.333 1.355-3.629 2.107l3.085 1.778c.245.142.507.265.723.442.282.233.469.545.231.907-.223.338-.553.398-.907.199-.959-.539-1.91-1.09-2.871-1.625-.263-.146-.492-.382-.944-.377 0 1.101.001 2.191-.001 3.282-.001.314.004.63-.021.943-.03.392-.242.676-.646.675-.406 0-.627-.3-.642-.681-.031-.88-.024-1.761-.033-2.642-.002-.22.001-.44 0-.66-.005-1.073-.006-1.075-.901-.561q-1.347.777-2.693 1.557c-.425.245-.873.34-1.137-.17-.238-.462.096-.766.472-.986 1.161-.681 2.325-1.356 3.585-2.09-1.214-.702-2.323-1.348-3.436-1.987-.427-.245-.903-.536-.611-1.086.333-.627.859-.311 1.302-.061 1.085.617 2.164 1.243 3.419 1.965M59.555 87.49c-2.419 0-4.654-.004-6.89.003-.406.001-.644-.107-.394-.54 1.137-1.968 2.284-3.93 3.504-6.023.334.577.631 1.01.847 1.48.271.591.572.665 1.144.33 3.134-1.838 6.288-3.64 9.436-5.455.759-.438 1.526-.862 2.271-1.322.343-.212.507-.168.737.181 1.056 1.601 1.072 1.597-.561 2.542-3.551 2.056-7.094 4.122-10.666 6.139-.597.337-.683.606-.316 1.142.296.431.532.906.888 1.523"/><path fill="#020202" d="M45.713 12.33c-.016-.568.244-.936.764-1.178 2.225-1.035 4.441-2.086 6.659-3.137.375-.178.617-.198.521.339-.555 3.08.129 6.008 1.14 8.88 1.065 3.027 2.487 5.853 4.96 8.016.423.37.411.565-.156.723a704 704 0 0 0-6.992 1.982c-.502.145-.847-.086-1.198-.364-.925-.067-1.405-.736-1.941-1.373-2.858-3.399-4.226-7.346-4.39-11.75-.031-.793.059-1.532.633-2.138M42.707 30.077c.12.529-.313.55-.621.637-2.691.76-5.388 1.505-8.081 2.259-.418.117-.808.054-1.192-.116-1.618-.631-2.357-2.089-3.173-3.446-.845-1.408-1.363-2.956-1.653-4.574-.076-.428-.157-.888.337-1.166.012-1.003.041-2.007.029-3.01-.007-.57.201-.921.739-1.167 2.48-1.131 4.944-2.3 7.42-3.444.328-.151.761-.554.906.204.466.238.395.652.363 1.065-.341 4.371.998 8.141 4.036 11.312.393.41 1.002.714.89 1.446"/><path fill="#fff" d="M42.707 30.077c-3.812-3.152-5.552-7.239-5.461-12.143.011-.561.112-1.12.172-1.68a149 149 0 0 1 8.295-3.925c-.589 6.016 1.373 11.08 5.696 15.262-2.552.914-5.204 1.479-7.796 2.257-.298.09-.603.153-.906.229"/><path fill="#020202" d="M23.998 35.177c.473.351.517.589-.14.77-2.941.811-5.878 1.639-8.813 2.471-.373.106-.671.022-.958-.218-2.81-2.342-4.382-5.213-3.843-8.983.099-.688.395-1.211 1.091-1.526 2.606-1.179 5.192-2.403 7.785-3.612.435-.203.913-.543.934.349.247.185.317.419.306.733-.12 3.223.816 6.088 2.882 8.588.336.406.89.751.756 1.428"/><path fill="#fff" d="M23.998 35.177c-3.091-2.932-4.53-6.469-3.944-10.75l8.092-3.801c.096 1.078-.117 2.081.178 3.046.288 3.25 1.653 6.01 3.823 8.404.229.253.444.521.666.781q-4.085 1.095-8.172 2.185c-.211.056-.428.09-.643.135M62.935 22.2a4.3 4.3 0 0 1-.268 1.622c-.412 1.064-.921 1.215-1.86.566-.786-.544-1.419-1.249-1.94-2.039-2.522-3.827-4.126-7.957-4.065-12.616.01-.79.039-1.767.805-2.079.821-.335 1.521.375 2.084.978 2.445 2.627 3.733 5.846 4.652 9.241.352 1.306.581 2.639.592 4.327M64.307 21.422c-.545-4.818-2.079-9.017-4.775-12.788.207-.225.422-.115.613-.068 3.296.799 6.588 1.614 9.888 2.398.672.16.858.425.46 1.03-2.02 3.07-4.033 6.145-6.186 9.428"/></g></svg>