<?xml version="1.0" encoding="utf-8"?>
<!-- Generator: Adobe Illustrator 16.0.0, SVG Export Plug-In . SVG Version: 6.00 Build 0)  -->
<!DOCTYPE svg PUBLIC "-//W3C//DTD SVG 1.1//EN" "http://www.w3.org/Graphics/SVG/1.1/DTD/svg11.dtd">
<svg version="1.1" id="Layer_1" xmlns="http://www.w3.org/2000/svg" xmlns:xlink="http://www.w3.org/1999/xlink" x="0px" y="0px"
	 width="80px" height="48px" viewBox="0 0 80 48" enable-background="new 0 0 80 48" xml:space="preserve">
<title>levels_middle</title>
<desc>Created with Sketch.</desc>
<g id="Picto-Export">
	<g id="Levels" transform="translate(-20.000000, -88.000000)">
		<g id="Blues" transform="translate(20.000000, 20.000000)">
			<g id="levels_middle" transform="translate(0.000000, 68.000000)">
				<polygon id="Middle" fill="#19ABFF" points="9.102,33 19.102,16 45.102,16 55.102,33 				"/>
				<path id="Mountain" fill="none" stroke="#222222" d="M63.102,47.5l-27-47l-6,11l-4-7l-25,43H63.102z"/>
				<polygon id="Rectangle" fill="#222222" points="10.701,32 65.102,32 65.102,33 10.102,33 				"/>
				<polygon id="Rectangle_1_" fill="#222222" points="20.001,16 65.102,16 65.102,17 19.401,17 				"/>
				<g id="Icon-_x2F_-Down-Open-Blue" transform="translate(69.000000, 3.000000)">
					<path id="Combined-Shape" fill="#19ABFF" d="M6.05,7.485l4.243-4.243L11,3.95L6.757,8.192L6.05,8.899L1.101,3.95l0.707-0.707
						L6.05,7.485z"/>
				</g>
				
					<g id="Icon-_x2F_-Down-Open-Blue_1_" transform="translate(74.500000, 39.500000) scale(1, -1) translate(-74.500000, -39.500000) translate(69.000000, 34.000000)">
					<path id="Combined-Shape_1_" fill="#19ABFF" d="M6.05,7.485l4.243-4.243L11,3.949L6.757,8.192L6.05,8.899l-4.949-4.95
						l0.707-0.707L6.05,7.485z"/>
				</g>
			</g>
		</g>
	</g>
</g>
</svg>
