<svg xmlns="http://www.w3.org/2000/svg" width="50" height="50" viewBox="0 0 50 50"><title>exposition_bg</title><g fill="none" fill-rule="evenodd"><g fill="#222" font-family="SFProText-Bold, SF Pro Text" font-size="8" font-weight="bold" letter-spacing=".5"><text transform="translate(21 5)">
                <tspan x=".928" y="8">N</tspan>
            </text><text transform="translate(21 5)">
                <tspan x="1.299" y="37">S</tspan>
            </text></g><g stroke="#222" stroke-linecap="round" stroke-linejoin="round"><path d="m.958 25 7.071-7.071L25 25 8.03 32.071z"/><path d="m49 25-7.071-7.071L24.959 25l16.97 7.071z"/><path d="m25 .958 7.071 7.071L25 25 17.929 8.03z"/><path d="m25 49 7.071-7.071L25 24.959l-7.071 16.97z"/><path d="M42 8H32l-7 17 17-7zM8 42h10l7-17-17 7zM42 42H32l-7-17 17 7zM8 8h10l7 17-17-7z"/></g></g></svg>