<?xml version="1.0" encoding="UTF-8"?>
<svg width="50px" height="50px" viewBox="0 0 50 50" version="1.1" xmlns="http://www.w3.org/2000/svg" xmlns:xlink="http://www.w3.org/1999/xlink">
    <!-- Generator: Sketch 50.2 (55047) - http://www.bohemiancoding.com/sketch -->
    <title>exposition_bg</title>
    <desc>Created with Sketch.</desc>
    <defs></defs>
    <g id="exposition_bg" stroke="none" stroke-width="1" fill="none" fill-rule="evenodd">
        <g id="N-S" transform="translate(21.000000, 5.000000)" fill="#222222" font-family="SFProText-Bold, SF Pro Text" font-size="8" font-weight="bold" letter-spacing="0.5">
            <text id="N">
                <tspan x="0.927734375" y="8">N</tspan>
            </text>
            <text id="S">
                <tspan x="1.29882812" y="37">S</tspan>
            </text>
        </g>
        <g id="Shape" stroke="#222222" stroke-linecap="round" stroke-linejoin="round">
            <polygon id="Rectangle" transform="translate(12.979185, 25.000000) rotate(-45.000000) translate(-12.979185, -25.000000) " points="4.47918472 16.5 14.4791847 16.5 21.4791847 33.5 4.47918472 26.5"></polygon>
            <polygon id="Rectangle" transform="translate(36.979185, 25.000000) scale(-1, 1) rotate(-45.000000) translate(-36.979185, -25.000000) " points="28.4791847 16.5 38.4791847 16.5 45.4791847 33.5 28.4791847 26.5"></polygon>
            <polygon id="Rectangle" transform="translate(25.000000, 12.979185) rotate(-315.000000) translate(-25.000000, -12.979185) " points="16.5 4.47918472 26.5 4.47918472 33.5 21.4791847 16.5 14.4791847"></polygon>
            <polygon id="Rectangle" transform="translate(25.000000, 36.979185) scale(1, -1) rotate(-315.000000) translate(-25.000000, -36.979185) " points="16.5 28.4791847 26.5 28.4791847 33.5 45.4791847 16.5 38.4791847"></polygon>
            <polygon id="Rectangle" transform="translate(33.500000, 16.500000) scale(-1, 1) translate(-33.500000, -16.500000) " points="25 8 35 8 42 25 25 18"></polygon>
            <polygon id="Rectangle" transform="translate(16.500000, 33.500000) scale(1, -1) translate(-16.500000, -33.500000) " points="8 25 18 25 25 42 8 35"></polygon>
            <polygon id="Rectangle" transform="translate(33.500000, 33.500000) scale(-1, -1) translate(-33.500000, -33.500000) " points="25 25 35 25 42 42 25 35"></polygon>
            <polygon id="Rectangle" points="8 8 18 8 25 25 8 18"></polygon>
        </g>
    </g>
</svg>