<?xml version="1.0" encoding="UTF-8"?>
<svg width="80px" height="48px" viewBox="0 0 80 48" version="1.1" xmlns="http://www.w3.org/2000/svg" xmlns:xlink="http://www.w3.org/1999/xlink">
    <!-- Generator: Sketch 50.2 (55047) - http://www.bohemiancoding.com/sketch -->
    <title>levels_below</title>
    <desc>Created with Sketch.</desc>
    <defs></defs>
    <g id="Picto-Export" stroke="none" stroke-width="1" fill="none" fill-rule="evenodd">
        <g id="Levels" transform="translate(-20.000000, -156.000000)">
            <g id="Blues" transform="translate(20.000000, 20.000000)">
                <g id="levels_below" transform="translate(0.000000, 136.000000)">
                    <polygon id="Bottom" fill="#19ABFF" points="0.500750752 47.0000007 9.50075075 32.0000007 53.5007508 32.0000007 62.5007508 47.0000007"></polygon>
                    <polygon id="Middle" fill="#19ABFF" points="8.50075075 33.0000007 18.5007508 16.0000007 44.5007508 16.0000007 54.5007508 33.0000007"></polygon>
                    <path d="M62.5007508,47.5000007 L35.5007508,0.50000067 L29.5007508,11.5000007 L25.5007508,4.50000067 L0.500750752,47.5000007 L62.5007508,47.5000007 Z" id="Mountain" stroke="#222222"></path>
                    <polygon id="Rectangle" fill="#222222" points="19.4007504 16.0000007 64.5007508 16.0000007 64.5007508 17.0000007 18.80075 17.0000007"></polygon>
                    <g id="Icon-/-Down-Open-Blue" transform="translate(69.000000, 29.000000)" fill="#19ABFF">
                        <path d="M7.94974747,6.44974747 L7.94974747,0.449747468 L8.94974747,0.449747468 L8.94974747,6.44974747 L8.94974747,7.44974747 L1.94974747,7.44974747 L1.94974747,6.44974747 L7.94974747,6.44974747 Z" id="Combined-Shape" transform="translate(5.449747, 3.949747) rotate(-315.000000) translate(-5.449747, -3.949747) "></path>
                    </g>
                </g>
            </g>
        </g>
    </g>
</svg>