<svg xmlns="http://www.w3.org/2000/svg" xml:space="preserve" width="814.333" height="595.28" viewBox="0 0 814.333 595.28"><path fill="#fff" stroke="#000" stroke-miterlimit="10" stroke-width="9" d="M556.451 293.269s2.362 3.874 0 6.306-246.423 246.491-246.423 246.491-3.942 3.384-7.326 0L56.474 299.825s-3.408-3.919 0-7.327l245.981-245.98s3.999-3.329 7.328 0L467.251 204"/><path fill="#cbd859" d="m556.053 300.086-245.98 245.98a5.18 5.18 0 0 1-7.326 0L56.765 300.086c-.023-.023-.038-.051-.061-.074l-.186-.188s-1.369-1.64-1.308-3.533 502.312 0 502.312 0 .014 2.312-1.469 3.795"/><path d="M296.82 347.555h-.46l-28.52 13.569-5.75-26.22 39.56-18.399h28.979v149.497H296.82z"/><path fill="none" stroke="#000" stroke-miterlimit="10" stroke-width="9" d="m523.962 260.696 31.801 31.802c.024.023.04.053.063.076l.184.185a5.18 5.18 0 0 1-.001 7.327l-245.98 245.98a5.18 5.18 0 0 1-7.326 0L56.721 300.086c-.023-.023-.038-.051-.061-.074l-.186-.187a5.18 5.18 0 0 1 0-7.327l245.981-245.98a5.18 5.18 0 0 1 7.328 0l114.778 114.793z"/><path stroke="#000" stroke-miterlimit="10" stroke-width="6" d="M522.522 261.947c-4.986 2.951-10.975 4.462-17.171 4.462-9.656 0-18.356-4.114-24.495-10.693L360.567 134.582l-77.171 48.086-44.222-27-101.402 57.236-79.856 80.907h496.611z"/></svg>