<svg xmlns="http://www.w3.org/2000/svg" xml:space="preserve" width="814.333" height="595.28" viewBox="0 0 814.333 595.28"><path fill="#fff" stroke="#000" stroke-miterlimit="10" stroke-width="9" d="M556.451 293.269s2.362 3.874 0 6.306-246.423 246.491-246.423 246.491-3.942 3.384-7.326 0L56.474 299.825s-3.408-3.919 0-7.327l245.981-245.98s3.999-3.329 7.328 0L467.251 204"/><path fill="#fff" stroke="#000" stroke-miterlimit="10" stroke-width="6" d="m556.01 292.759-31.801-31.802c10.075-5.901 17.647-16.029 17.647-28.548 0-17.9-13.836-32.558-31.395-33.891a27.16 27.16 0 0 0 4.927-15.634c0-15.076-12.221-27.296-27.295-27.296-7.759 0-14.756 3.242-19.726 8.438-3.838-8.331-12.258-14.118-22.031-14.118-8.988 0-16.829 4.895-21.018 12.159L310.03 46.779a5.18 5.18 0 0 0-7.328 0L56.721 292.76a5.18 5.18 0 0 0 0 7.327l245.981 245.979a5.18 5.18 0 0 0 7.326 0l245.98-245.98a5.18 5.18 0 0 0 .002-7.327z"/><path d="M485.417 200s.183-.001.531.026c.345.036.854.091 1.494.229.635.147 1.411.346 2.267.692.852.349 1.815.788 2.764 1.452.482.32.978.671 1.443 1.098.499.393.936.88 1.378 1.392.899 1.011 1.678 2.236 2.282 3.594.324.67.508 1.4.77 2.12.234.726.333 1.486.479 2.246.149.761.126 1.531.194 2.304l.034.581.008.146.003.036-.004.116-.003.068-.013.272-.052 1.09c-.024.366-.039.72-.077 1.096l-.206 1.195-.222 1.187-.352 1.119c-.122.37-.233.741-.363 1.103l-.502 1.043c-.303.704-.728 1.336-1.139 1.957-.377.642-.896 1.172-1.356 1.713-.48.525-1.029.961-1.521 1.418-.553.386-1.055.805-1.599 1.118-.555.294-1.06.625-1.598.837a14.4 14.4 0 0 1-2.936 1.023c-.887.237-1.684.334-2.334.39-.646.076-1.165.046-1.51.043l-.53-.037.512-.134c.329-.092.81-.234 1.401-.455.298-.103.623-.226.968-.385.347-.148.722-.301 1.106-.503.393-.179.794-.4 1.205-.65.423-.226.841-.504 1.272-.794.866-.578 1.7-1.321 2.54-2.117.779-.861 1.536-1.806 2.149-2.887.302-.543.62-1.085.825-1.697l.356-.893.266-.942.266-.947.15-.951.168-.951c.033-.347.04-.722.065-1.082l.077-1.088.02-.272.005-.068.001-.017c.001-.023-.005.143-.003.065l-.001-.032-.005-.127-.021-.506c-.047-.67-.001-1.358-.118-2.006-.126-.645-.159-1.311-.309-1.935-.182-.611-.283-1.252-.517-1.828-.447-1.157-.941-2.268-1.604-3.213l-.487-.704c-.168-.226-.366-.421-.536-.637a9.7 9.7 0 0 0-1.095-1.166 18 18 0 0 0-2.227-1.784c-.72-.47-1.378-.854-1.938-1.146-.565-.274-1.018-.495-1.336-.622z"/><path fill="#f3e600" d="m556.053 300.086-245.98 245.98a5.18 5.18 0 0 1-7.326 0L56.765 300.086c-.023-.023-.038-.051-.061-.074l-.186-.187s-1.369-1.64-1.308-3.533 502.312 0 502.312 0 .014 2.312-1.469 3.794"/><path d="M252.201 466.002v-21.159l19.32-17.48c32.659-29.209 48.529-45.999 48.989-63.479 0-12.19-7.36-21.85-24.61-21.85-12.879 0-24.149 6.44-31.969 12.42l-9.89-25.069c11.27-8.51 28.749-15.41 48.989-15.41 33.809 0 52.438 19.779 52.438 46.92 0 25.069-18.17 45.078-39.789 64.398l-13.8 11.5v.46h56.349v28.749z"/><path fill="none" stroke="#000" stroke-miterlimit="10" stroke-width="9" d="m523.962 260.696 31.801 31.802c.024.024.04.053.063.077l.184.184a5.18 5.18 0 0 1-.001 7.327l-245.98 245.98a5.18 5.18 0 0 1-7.326 0L56.721 300.086c-.023-.023-.038-.051-.061-.074l-.186-.187a5.18 5.18 0 0 1 0-7.327l245.981-245.98a5.18 5.18 0 0 1 7.328 0l114.778 114.793s.683-2.311 1.767-3.311"/><path stroke="#000" stroke-miterlimit="10" stroke-width="6" d="M522.522 261.947c-4.986 2.951-10.975 4.462-17.171 4.462-9.656 0-18.356-4.114-24.495-10.693L360.567 134.582l-77.171 48.086-44.222-27-101.402 57.236-79.856 80.907h496.611z"/></svg>