<svg xmlns="http://www.w3.org/2000/svg" xml:space="preserve" width="814.333" height="595.28" viewBox="0 0 814.333 595.28"><path fill="#fff" stroke="#000" stroke-miterlimit="10" stroke-width="9" d="M556.451 293.269s2.362 3.874 0 6.306-246.423 246.491-246.423 246.491-3.942 3.384-7.326 0L56.474 299.825s-3.408-3.919 0-7.327l245.981-245.98s3.999-3.329 7.328 0L467.251 204"/><path fill="#575757" d="m555.909 300.086-245.98 245.98a5.18 5.18 0 0 1-7.326 0L56.622 300.086c-.023-.023-.038-.051-.061-.074l-.186-.187s-1.369-1.64-1.308-3.533 502.312 0 502.312 0 .014 2.312-1.47 3.794"/><path d="M126.268 309.064 96.203 339.13l-30.066-30.066 30.065-30.065z"/><path fill="#575757" d="m156.332 279-30.066 30.066L96.2 279l30.066-30.066zM156.332 339.132l-30.066 30.066-30.065-30.066 30.065-30.065z"/><path d="m186.4 309.066-30.066 30.066-30.066-30.066L156.334 279z"/><path fill="#575757" d="m216.465 279.001-30.066 30.066-30.065-30.065 30.065-30.066z"/><path d="m186.396 369.204-30.066 30.065-30.065-30.065 30.066-30.066z"/><path fill="#575757" d="M216.465 339.131 186.4 369.197l-30.065-30.065 30.066-30.066z"/><path d="m246.532 309.059-30.066 30.066-30.066-30.066 30.066-30.066z"/><path fill="#575757" d="m276.597 278.995-30.065 30.066-30.066-30.066 30.065-30.065zM216.465 399.263 186.4 429.33l-30.066-30.066 30.066-30.065z"/><path d="m246.531 369.196-30.065 30.066-30.066-30.065 30.066-30.066z"/><path fill="#575757" d="m276.597 339.13-30.065 30.065-30.065-30.065 30.065-30.065z"/><path d="m306.663 309.063-30.066 30.066-30.065-30.065 30.065-30.066z"/><path fill="#575757" d="m336.729 279-30.066 30.066L276.598 279l30.066-30.065z"/><path d="m246.531 429.33-30.066 30.066L186.4 429.33l30.066-30.066z"/><path fill="#575757" d="m276.598 399.262-30.066 30.066-30.066-30.066 30.066-30.066z"/><path d="m306.664 369.196-30.066 30.066-30.066-30.066 30.066-30.066z"/><path fill="#575757" d="m336.73 339.13-30.065 30.065-30.066-30.066 30.065-30.065z"/><path d="m366.795 309.06-30.065 30.065-30.066-30.066 30.065-30.066z"/><path fill="#575757" d="m396.862 279-30.066 30.067L336.73 279l30.066-30.066zM276.599 459.396l-30.066 30.066-30.066-30.066 30.066-30.066z"/><path d="m306.664 429.33-30.066 30.065-30.065-30.066 30.065-30.066z"/><path fill="#575757" d="m336.73 399.262-30.066 30.066-30.066-30.066 30.066-30.065z"/><path d="m366.795 369.195-30.065 30.066-30.065-30.066 30.065-30.065z"/><path fill="#575757" d="m396.862 339.13-30.065 30.065-30.066-30.066 30.065-30.065z"/><path d="m426.929 309.064-30.066 30.066-30.066-30.066 30.066-30.066zM306.661 489.47l-30.065 30.065-30.066-30.065 30.066-30.066z"/><path fill="#575757" d="m336.73 459.395-30.066 30.066-30.065-30.066 30.066-30.066z"/><path d="m366.798 429.32-30.066 30.066-30.066-30.066 30.066-30.066z"/><path fill="#575757" d="m396.862 399.253-30.065 30.066-30.066-30.066 30.066-30.066z"/><path d="m426.929 369.205-30.066 30.065-30.066-30.065 30.066-30.066z"/><path fill="#575757" d="m456.995 339.138-30.066 30.066-30.065-30.065 30.066-30.066zM336.73 519.527l-30.066 30.065-30.065-30.065 30.065-30.065z"/><path d="m366.796 489.46-30.066 30.066-30.065-30.065 30.066-30.066z"/><path fill="#575757" d="m396.862 459.394-30.065 30.065-30.066-30.065 30.065-30.066z"/><path d="m426.93 429.328-30.067 30.066-30.066-30.066 30.066-30.066z"/><path fill="#575757" d="m456.995 399.261-30.066 30.066-30.066-30.066 30.066-30.066z"/><path d="m487.06 369.195-30.066 30.065-30.065-30.065 30.065-30.065z"/><path fill="#575757" d="m517.126 339.13-30.065 30.065-30.066-30.066 30.065-30.066z"/><path fill="#fff" stroke="#000" stroke-miterlimit="10" stroke-width="7" d="M468.142 204.964c7.5-12.627 24.833-14.794 24.833-14.794 18.167-1.5 26.333 7.965 26.333 7.965 5.834-28.631 31.834-36.298 31.834-36.298 23.666-9.833 44.691 4.5 44.691 4.5 14.667-37.667 46.834-33.332 46.834-33.332 37.5 1.167 44.666 38.831 44.666 38.831 15-6.5 24.667 1 24.667 1 13.667 5.833 12.167 26.263 12.167 26.263 7-.568 34.666 10.901 34.5 45.401-2.166 46.333-44.917 48.5-44.917 48.5l-658.793 1.125"/><path fill="#fff" d="M352.02 341.922h-57.959l-3.22 22.999c3.22-.46 5.979-.46 9.659-.46 14.26 0 28.75 3.22 39.33 10.81C351.1 382.86 358 395.28 358 412.76c0 27.829-23.92 52.439-64.169 52.439-18.17 0-33.35-4.141-41.629-8.51l6.21-26.22c6.67 3.22 20.24 7.359 33.81 7.359 14.49 0 29.898-6.899 29.898-22.77 0-15.409-12.189-24.839-42.088-24.839-8.28 0-14.03.46-20.24 1.38l9.89-78.429h82.338z"/><path d="M513.283 240.425s.134-.262.431-.739c.307-.466.763-1.153 1.435-1.962.349-.39.728-.836 1.163-1.303.452-.447.943-.938 1.508-1.418 1.131-.955 2.475-2.002 4.123-2.874l1.268-.666c.439-.212.91-.373 1.38-.567.475-.181.953-.39 1.458-.539l1.557-.401c2.116-.534 4.447-.696 6.839-.571 1.201.027 2.381.319 3.602.492 1.209.218 2.364.65 3.563.999.608.159 1.167.422 1.733.673l1.703.765.852.391.213.098.053.025.144.08.023.014.094.056.376.224 1.507.896c.502.31.994.594 1.499.93l1.551 1.191 1.527 1.206 1.331 1.342c.436.45.881.887 1.3 1.344l1.118 1.494c.353.507.767.962 1.056 1.503l.885 1.588.429.785c.131.266.229.547.344.818l.64 1.624c.39 1.079.613 2.186.887 3.232.131 1.079.336 2.111.377 3.12.004 1.012.105 1.979-.001 2.905-.069.925-.115 1.805-.285 2.629l-.211 1.201q-.142.575-.273 1.115a16 16 0 0 1-.582 1.981 18 18 0 0 1-.625 1.628 11 11 0 0 1-.589 1.271c-.192.36-.336.669-.491.906l-.454.724.187-.829c.113-.539.265-1.329.389-2.336.073-.5.139-1.055.167-1.664q.029-.455.075-.938l.029-1.01.022-1.069-.055-1.129c-.009-.769-.104-1.57-.2-2.397-.051-.832-.279-1.674-.425-2.545-.173-.868-.471-1.733-.702-2.629-.37-.855-.635-1.768-1.071-2.627-.489-.834-.81-1.767-1.428-2.56q-.413-.619-.831-1.247c-.258-.431-.643-.784-.958-1.184l-.992-1.175c-.368-.366-.76-.715-1.138-1.077l-1.146-1.08a46 46 0 0 1-1.234-.921l-1.221-.944c-.468-.306-.996-.598-1.489-.9l-1.495-.916-.373-.229-.094-.057-.022-.014c-.034-.02.207.118.094.055l-.046-.021-.184-.086-.734-.344-1.459-.702c-.482-.239-.96-.494-1.467-.638l-1.488-.521c-.495-.164-.977-.405-1.481-.484l-1.493-.339c-.495-.104-.983-.274-1.479-.292-1.971-.259-3.911-.358-5.743-.134l-1.362.153c-.446.066-.872.196-1.305.279-.428.101-.86.169-1.27.292l-1.199.392c-1.576.508-2.979 1.166-4.207 1.801-.616.317-1.147.686-1.686.973-.514.319-.974.635-1.4.912l-1.098.799-.794.626c-.425.348-.652.546-.652.546M554.958 210.82s.309-.396.957-1.083a35 35 0 0 1 2.982-2.809 41 41 0 0 1 5.196-3.748c2.119-1.298 4.633-2.61 7.552-3.659 2.906-1.063 6.212-1.926 9.804-2.212 3.582-.316 7.437-.169 11.303.636 3.869.783 7.739 2.171 11.397 4.048.934.44 1.819.964 2.712 1.484l1.344.779 1.289.861 1.29.865.323.216.209.151.149.112.597.449c.801.62 1.585 1.152 2.4 1.846 3.301 2.703 6.215 5.639 8.7 8.986a41.8 41.8 0 0 1 5.802 10.666 39.6 39.6 0 0 1 2.337 11.064c.253 3.58-.009 6.96-.52 10.003a44.5 44.5 0 0 1-2.116 8.097 45 45 0 0 1-2.572 5.86c-.81 1.573-1.583 2.733-2.105 3.516-.261.393-.481.68-.629.874l-.222.294s.228-.448.599-1.307c.381-.854.883-2.129 1.443-3.769.555-1.642 1.125-3.665 1.648-5.998a55 55 0 0 0 1.103-7.899c.175-2.9.094-6.039-.342-9.286-.45-3.248-1.39-6.574-2.751-9.829-1.372-3.255-3.243-6.41-5.528-9.342-2.276-2.907-5.04-5.661-7.926-7.993-.696-.611-1.559-1.213-2.329-1.819l-.594-.454-.148-.113-.074-.057c.097.071.005.005.018.015l-.037-.025-.297-.201-1.183-.805-1.179-.805-1.213-.737c-.806-.494-1.605-.995-2.442-1.409-3.292-1.778-6.709-3.153-10.137-4.029-3.427-.868-6.85-1.285-10.114-1.233a40.4 40.4 0 0 0-9.164 1.229c-5.617 1.44-10.053 3.703-13.016 5.479-2.967 1.798-4.516 3.091-4.516 3.091"/><g stroke="#000" stroke-miterlimit="10"><path d="m360.313 130.031-6.844 4.563L485 265.563s2.438 1.813 5.063-.5 0-5.625 0-5.625zM338.358 144.237l-6.092 4.068 117.075 116.783s2.17 1.616 4.506-.446 0-5.016 0-5.016z"/></g><path fill="#575757" d="m411.376 293.517 15.548 15.547 15.6-15.601z"/><path d="m442.524 293.463-15.6 15.601 30.065 30.066 30.066-30.066-15.651-15.65zM502.759 293.36l-15.704 15.704 30.066 30.066 30.067-30.066-15.753-15.752z"/><path fill="none" stroke="#000" stroke-miterlimit="10" stroke-width="7" d="m468.708 202.875-.916 3.083-2.667-2.75"/><path stroke="#000" stroke-miterlimit="10" stroke-width="3" d="m55.208 294.917 82.403-83.556L239.5 153.5l44.25 26.75 32.75-20 108 108.386s22 22.864 50 22.864-419.292 3.417-419.292 3.417z"/><path fill="none" stroke="#000" stroke-miterlimit="10" stroke-width="9" d="M556.451 293.269s2.362 3.874 0 6.306-246.423 246.491-246.423 246.491-3.942 3.384-7.326 0L56.474 299.825s-3.408-3.919 0-7.327l245.981-245.98s3.999-3.329 7.328 0L467.251 204"/></svg>