<svg xmlns="http://www.w3.org/2000/svg" xml:space="preserve" width="814.333" height="595.28" viewBox="0 0 814.333 595.28"><path fill="#fff" stroke="#000" stroke-miterlimit="10" stroke-width="9" d="M556.451 293.269s2.362 3.874 0 6.306-246.423 246.491-246.423 246.491-3.942 3.384-7.326 0L56.474 299.825s-3.408-3.919 0-7.327l245.981-245.98s3.999-3.329 7.328 0L467.251 204"/><path fill="#cbd859" d="m556.053 300.086-245.98 245.98a5.18 5.18 0 0 1-7.326 0L56.765 300.086c-.023-.023-.038-.051-.061-.074l-.186-.188s-1.369-1.64-1.308-3.533 502.312 0 502.312 0 .014 2.312-1.469 3.795"/><path d="M296.82 347.555h-.46l-28.52 13.569-5.75-26.22 39.56-18.399h28.979v149.497H296.82z"/><path fill="none" stroke="#000" stroke-miterlimit="10" stroke-width="9" d="m523.962 260.696 31.801 31.802c.024.023.04.053.063.076l.184.185a5.18 5.18 0 0 1-.001 7.327l-245.98 245.98a5.18 5.18 0 0 1-7.326 0L56.721 300.086c-.023-.023-.038-.051-.061-.074l-.186-.187a5.18 5.18 0 0 1 0-7.327l245.981-245.98a5.18 5.18 0 0 1 7.328 0l114.778 114.793z"/><path stroke="#000" stroke-miterlimit="10" stroke-width="6" d="M522.522 261.947c-4.986 2.951-10.975 4.462-17.171 4.462-9.656 0-18.356-4.114-24.495-10.693L360.567 134.582l-77.171 48.086-44.222-27-101.402 57.236-79.856 80.907h496.611z"/><path fill="#fff" stroke="#000" stroke-miterlimit="10" stroke-width="9" d="M556.451 293.269s2.362 3.874 0 6.306-246.423 246.491-246.423 246.491-3.942 3.384-7.326 0L56.474 299.825s-3.408-3.919 0-7.327l245.981-245.98s3.999-3.329 7.328 0L467.251 204"/><path fill="#9d9d9d" d="M558.024 296.855 311.075 546.047a5.166 5.166 0 0 1-7.354 0L56.771 296.855c-.024-.024-.039-.051-.062-.075l-.187-.19s-1.374-1.661-1.313-3.579c.062-1.917 504.29 0 504.29 0s.015 2.342-1.475 3.844"/><path d="M258.267 429.065c6.21 3.22 20.47 9.2 34.729 9.2 18.169 0 27.37-8.74 27.37-20.01 0-14.72-14.72-21.39-30.13-21.39h-14.259v-25.069h13.569c11.73-.23 26.68-4.601 26.68-17.25 0-8.97-7.36-15.64-22.08-15.64-12.19 0-25.069 5.29-31.279 8.97l-7.13-25.299c8.97-5.75 26.909-11.271 46.229-11.271 31.969 0 49.679 16.79 49.679 37.259 0 15.87-8.97 28.29-27.369 34.73v.46c17.939 3.22 32.429 16.789 32.429 36.339 0 26.449-23.229 45.77-61.179 45.77-19.319 0-35.649-5.061-44.389-10.58z"/><path fill="#fff" stroke="#000" stroke-miterlimit="10" stroke-width="6" d="M54.707 293.25h567.035s37.999.999 41.666-40.667c3.667-37.333-43-46.667-51.666-40.667 0 0-9.334-34.667-42.667-34 0 0-26.969-5.364-44 31 0 0-26.667-16.333-45.2 8.2"/><path d="M520.283 240.425s.134-.262.431-.739c.307-.466.763-1.153 1.435-1.962.349-.39.728-.836 1.163-1.303.452-.447.943-.938 1.508-1.418 1.131-.955 2.475-2.002 4.123-2.874l1.268-.666c.439-.212.91-.373 1.38-.567.475-.181.953-.39 1.458-.539l1.557-.401c2.116-.534 4.447-.696 6.839-.571 1.201.027 2.381.319 3.602.492 1.209.218 2.364.65 3.563.999.608.159 1.167.422 1.733.673l1.703.765.852.391.213.098.053.025.144.08.023.014.094.056.376.224 1.507.896c.502.31.994.594 1.499.93l1.551 1.191 1.527 1.206 1.331 1.342c.436.45.881.887 1.3 1.344l1.118 1.494c.353.507.767.962 1.056 1.503l.885 1.588.429.785c.131.266.229.547.344.818l.64 1.624c.39 1.079.613 2.186.887 3.232.131 1.079.336 2.111.377 3.12.004 1.012.105 1.979-.001 2.905-.069.925-.115 1.805-.285 2.629l-.211 1.201q-.142.575-.273 1.115a16 16 0 0 1-.582 1.981 18 18 0 0 1-.625 1.628 11 11 0 0 1-.589 1.271c-.192.36-.336.669-.491.906l-.454.724.187-.829c.113-.539.265-1.329.389-2.336.073-.5.139-1.055.167-1.664q.029-.455.075-.938l.029-1.01.022-1.069-.055-1.129c-.009-.769-.104-1.57-.2-2.397-.051-.832-.279-1.674-.425-2.545-.173-.868-.471-1.733-.702-2.629-.37-.855-.635-1.768-1.071-2.627-.489-.834-.81-1.767-1.428-2.56q-.413-.619-.831-1.247c-.258-.431-.643-.784-.958-1.184l-.992-1.175c-.368-.366-.76-.715-1.138-1.077l-1.146-1.08a46 46 0 0 1-1.234-.921l-1.221-.944c-.468-.306-.996-.598-1.489-.9l-1.495-.916-.373-.229-.094-.057-.022-.014c-.034-.02.207.118.094.055l-.046-.021-.184-.086-.734-.344-1.459-.702c-.482-.239-.96-.494-1.467-.638l-1.488-.521c-.495-.164-.977-.405-1.481-.484l-1.493-.339c-.495-.104-.983-.274-1.479-.292-1.971-.259-3.911-.358-5.743-.134l-1.362.153c-.446.066-.872.196-1.305.279-.428.101-.86.169-1.27.292l-1.199.392c-1.576.508-2.979 1.166-4.207 1.801-.616.317-1.147.686-1.686.973-.514.319-.974.635-1.4.912l-1.098.799-.794.626c-.425.348-.652.546-.652.546"/><path stroke="#000" stroke-miterlimit="10" d="m360.313 130.031-6.844 4.563L485 265.563s2.438 1.813 5.063-.5 0-5.625 0-5.625z"/><path stroke="#000" stroke-miterlimit="10" stroke-width="5" d="m57 293 85-83.5 97-54.5 44 27 54.5-34.5 118 118s21.5 27.5 48 27.5z"/><path fill="none" stroke="#000" stroke-miterlimit="10" stroke-width="9" d="m480.423 214.043-1.392 1.683-3.468-3.469M557.416 295.354c.52 2.792-1.407 4.731-1.407 4.731l-245.98 245.98c-3.206 3.207-7.326 0-7.326 0S59.776 303.141 56.474 299.825s0-7.327 0-7.327l245.981-245.98c3.437-3.437 7.328 0 7.328 0l167.085 167.091 2.496 2.496.169.168.559.56"/></svg>